<?xml version="1.0" encoding="UTF-8" standalone="no"?>
<!-- Created with Inkscape (http://www.inkscape.org/) -->

<svg
   xmlns:dc="http://purl.org/dc/elements/1.1/"
   xmlns:cc="http://creativecommons.org/ns#"
   xmlns:rdf="http://www.w3.org/1999/02/22-rdf-syntax-ns#"
   xmlns:svg="http://www.w3.org/2000/svg"
   xmlns="http://www.w3.org/2000/svg"
   xmlns:sodipodi="http://sodipodi.sourceforge.net/DTD/sodipodi-0.dtd"
   xmlns:inkscape="http://www.inkscape.org/namespaces/inkscape"
   width="368.10229"
   height="603.14142"
   id="svg6526"
   version="1.1"
   inkscape:version="0.48.4 r9939"
   sodipodi:docname="angel.svg">
  <defs
     id="defs6528" />
  <sodipodi:namedview
     id="base"
     pagecolor="#ffffff"
     bordercolor="#666666"
     borderopacity="1.0"
     inkscape:pageopacity="0.0"
     inkscape:pageshadow="2"
     inkscape:zoom="0.7"
     inkscape:cx="20.73219"
     inkscape:cy="270.33266"
     inkscape:document-units="px"
     inkscape:current-layer="layer2"
     showgrid="false"
     inkscape:window-width="1362"
     inkscape:window-height="729"
     inkscape:window-x="0"
     inkscape:window-y="37"
     inkscape:window-maximized="0"
     fit-margin-top="0"
     fit-margin-left="0"
     fit-margin-right="0"
     fit-margin-bottom="0" />
  <metadata
     id="metadata6531">
    <rdf:RDF>
      <cc:Work
         rdf:about="">
        <dc:format>image/svg+xml</dc:format>
        <dc:type
           rdf:resource="http://purl.org/dc/dcmitype/StillImage" />
        <dc:title />
      </cc:Work>
    </rdf:RDF>
  </metadata>
  <g
     inkscape:groupmode="layer"
     id="layer2"
     inkscape:label="angel"
     transform="translate(-573.98711,-459.57236)"
     sodipodi:insensitive="true">
    <path
       style="fill:#ececec;fill-opacity:1;stroke:none"
       d="m 680.33774,801.33927 -10.35406,65.65992 75.00382,14.39467 -11.11168,-86.62058 z"
       id="path7164"
       inkscape:connector-curvature="0" />
    <path
       style="fill:#ececec;fill-opacity:1;stroke:#b7c8c4;stroke-width:4;stroke-linecap:butt;stroke-linejoin:miter;stroke-opacity:1"
       d="m 651.42858,626.29075 c 0,0 1.07142,-76.42857 27.14285,-102.14285 26.07143,-25.71429 47.5,-46.78572 50.35714,-45.35715 2.85715,1.42857 11.07143,34.64286 -4.28571,62.85715 -15.35714,28.21428 -46.07143,79.64285 -46.07143,79.64285 0,0 -18.57143,0.35714 -27.14285,5 z"
       id="path7166"
       inkscape:connector-curvature="0"
       sodipodi:nodetypes="cssscc" />
    <path
       style="fill:#ececec;stroke:#b7c8c4;stroke-width:4;stroke-linecap:butt;stroke-linejoin:miter;stroke-opacity:1"
       d="m 711.42857,772.00504 c 55,-26.42857 59.28572,-48.57143 59.28572,-48.57143 3.57143,-44.28571 -42.91332,-87.0289 -46.42857,-91.07143 -7.14286,-8.21428 -68.92858,-25 -101.42858,7.5 -41.25038,41.25038 -30,87.85714 -30,87.85714 0,0 6.78572,27.85715 77.5,48.57143 0,0 -44.64285,46.78572 -15.35714,95"
       id="path6581"
       inkscape:connector-curvature="0"
       sodipodi:nodetypes="ccsscc" />
    <path
       style="fill:#ececec;fill-opacity:1;stroke:#b7c8c4;stroke-width:4;stroke-linecap:butt;stroke-linejoin:miter;stroke-opacity:1"
       d="m 647.00271,818.25933 c 0,0 -15.40483,-16.92006 -23.73859,3.78807 -8.33376,20.70813 24.24366,22.4759 13.63706,10.85914 -10.6066,-11.61675 -28.78935,-10.85914 -33.33503,1.01015 -4.54569,11.8693 2.52538,23.48605 13.88959,25.25382 11.36422,1.76777 20.45559,-7.82868 15.90991,-8.83884 -4.54569,-1.01015 -18.68783,-1.26269 -16.92006,15.90991 1.76777,17.17259 28.28427,18.94036 36.61803,2.77792 0,0 -12.6269,-25.00128 -6.06091,-50.76017 z"
       id="path6583"
       inkscape:connector-curvature="0" />
    <path
       style="fill:none;stroke:#b7c8c4;stroke-width:4;stroke-linecap:butt;stroke-linejoin:miter;stroke-opacity:1"
       d="m 674.52936,801.08674 c 0,0 -1.01015,23.48604 15.90991,7.3236"
       id="path6585"
       inkscape:connector-curvature="0" />
    <path
       style="fill:#ececec;fill-opacity:1;stroke:#b7c8c4;stroke-width:4;stroke-linecap:butt;stroke-linejoin:miter;stroke-opacity:1"
       d="m 738.42151,785.68191 c 0,0 4.54569,-1.26269 7.32361,2.52538 2.77792,3.78807 5.3033,14.14214 3.03046,18.94036"
       id="path6589"
       inkscape:connector-curvature="0" />
    <path
       style="fill:#ececec;fill-opacity:1;stroke:#b7c8c4;stroke-width:4;stroke-linecap:butt;stroke-linejoin:miter;stroke-opacity:1"
       d="m 672.25652,827.60324 c 0,0 20.70813,-8.08122 27.52666,4.04061 6.81853,12.12183 -10.35407,34.59773 -10.35407,34.59773 0,0 32.57742,1.01015 30.05204,13.38452 -1.26269,0.25254 10.10153,14.64721 -63.89215,-9.09138"
       id="path6591"
       inkscape:connector-curvature="0" />
    <path
       style="fill:#ffa100;fill-opacity:1;stroke:#d48300;stroke-width:4;stroke-linecap:butt;stroke-linejoin:miter;stroke-opacity:1"
       d="m 700.28825,776.338 c 0,0 -0.25254,50.00255 11.61676,85.61043 11.86929,35.60787 23.23351,67.93276 44.95179,64.64976 21.71828,-3.283 38.63833,-12.12183 36.11295,-31.56727 -2.52538,-19.44543 -44.69925,-86.36804 -48.23479,-92.42895 -3.53553,-6.06092 -8.83883,-18.94036 -8.83883,-18.94036 0,0 -9.34391,-1.76777 -11.11168,-8.83884 0,0 -5.05076,-2.77792 -6.06091,-2.0203 l -1.01016,4.04061 c 0,0 -2.52538,-5.30331 -6.06091,-5.55584 -3.53553,-0.25254 -11.36422,5.05076 -11.36422,5.05076 z"
       id="path6593"
       inkscape:connector-curvature="0" />
    <path
       style="fill:none;stroke:#d48300;stroke-width:3;stroke-linecap:butt;stroke-linejoin:miter;stroke-opacity:1"
       d="m 700.54079,791.99536 c 0,0 14.89975,-10.6066 36.11295,-4.79822"
       id="path6595"
       inkscape:connector-curvature="0" />
    <path
       style="fill:none;stroke:#d48300;stroke-width:3;stroke-linecap:butt;stroke-linejoin:miter;stroke-opacity:1"
       d="m 701.80348,807.90527 c 0,0 14.89975,-13.13199 39.64849,-8.33376"
       id="path6597"
       inkscape:connector-curvature="0" />
    <path
       style="fill:#ececec;fill-opacity:1;stroke:#b7c8c4;stroke-width:4;stroke-linecap:butt;stroke-linejoin:miter;stroke-opacity:1"
       d="m 686.39866,794.52075 c 0,0 10.35406,-8.5863 16.92005,-1.2627 6.56599,7.32361 6.56599,20.70813 -5.05076,25.50636 -11.61676,4.79822 -7.26047,-16.41498 -7.26047,-16.41498"
       id="path6587"
       inkscape:connector-curvature="0"
       sodipodi:nodetypes="cssc" />
    <path
       style="fill:none;stroke:#d48300;stroke-width:3;stroke-linecap:butt;stroke-linejoin:miter;stroke-opacity:1"
       d="m 707.10678,841.2403 c 2.77792,-0.75761 13.63706,-25.00128 51.77032,-15.15229"
       id="path6599"
       inkscape:connector-curvature="0" />
    <path
       style="fill:#d48300;fill-opacity:1;stroke:none"
       d="m 180.89286,463.67713 c 0,0 19.82143,-2.32143 27.5,-10.71428 7.67857,-8.39286 5,-20.17857 1.25,-29.82143 -3.75,-9.64286 -13.03572,-25.89286 -14.28572,-28.39286 24.28571,52.14286 -14.46428,68.92857 -14.46428,68.92857 z"
       id="path7198"
       inkscape:connector-curvature="0"
       transform="translate(573.98711,459.57236)" />
    <path
       style="fill:none;stroke:#d48300;stroke-width:3;stroke-linecap:butt;stroke-linejoin:miter;stroke-opacity:1"
       d="m 719.73369,884.42432 c 0,0 12.37437,-25.00127 61.36677,-17.93021"
       id="path6601"
       inkscape:connector-curvature="0" />
    <path
       style="fill:#71c837;stroke:#5aa02c;stroke-width:3;stroke-linecap:butt;stroke-linejoin:miter;stroke-opacity:1"
       d="m 765.69563,898.06138 c -0.75762,-1.2627 20.45559,31.56727 43.94163,45.96194 0,0 -14.14213,-5.80838 -5.80837,-19.69797 8.33376,-13.8896 23.99112,-5.80838 29.54696,0.50507 0,0 35.86042,6.06092 15.65736,30.30458 -1.51522,0 -10.85914,9.09137 -16.92005,-5.55584 -6.06092,-14.64721 18.43528,3.78807 18.43528,12.87944 0,9.09138 -5.05076,37.37567 -12.6269,23.23351 -7.57615,-14.14213 16.16244,-19.1929 20.70812,-18.94036 4.54569,0.25254 24.74874,7.57615 25.50636,27.27412 0.75761,19.69803 -23.48605,-9.84899 -6.566,-16.92005 16.92006,-7.07107 41.92133,-7.32361 49.24494,8.08122 7.32361,15.40486 4.79822,42.93156 -12.12183,41.41626 -16.92006,-1.5152 -18.43528,-16.415 -13.63706,-16.6675 4.79822,-0.2525 29.7995,18.1828 31.56727,24.2437 1.76776,6.0609 1.01015,17.6776 -0.25254,19.4454 0,0 3.40451,3.442 7.82868,-2.5254 5.68032,16.9492 -50.25509,11.8693 -67.42768,-9.849 0,0 -10.10153,-19.1929 1.51523,-20.9606 11.61675,-1.7678 11.61675,18.4353 -15.65737,19.1929 -27.27412,0.7576 -33.08249,-29.547 -19.69797,-35.8604 13.38452,-6.31353 25.50635,12.1218 -5.05076,11.3642 -30.55712,-0.7576 -38.63834,-15.15233 -38.89088,-23.23357 -0.25254,-8.08122 3.78807,-25.50635 15.65737,-25.25382 11.86929,0.25254 9.34391,14.39468 -13.8896,5.55584 -23.23351,-8.83883 -18.94036,-25.00127 -13.38452,-26.76904 5.55584,-1.76777 13.8896,-4.29315 13.8896,-4.29315 l -6.06092,1.76777 c 0,0 -25.75889,-23.48605 -31.56727,-38.13326 z"
       id="path6605"
       inkscape:connector-curvature="0"
       sodipodi:nodetypes="ccsccsssssssssscccsssssssscccc" />
    <path
       style="fill:#d48300;fill-opacity:1;stroke:none"
       d="m 756.35172,912.20352 c 0,0 10.35406,-17.42513 19.69798,-17.42513 -23.2335,-1.26269 -19.69798,17.42513 -19.69798,17.42513 z"
       id="path6603"
       inkscape:connector-curvature="0" />
    <path
       style="fill:#b7c8c4;stroke:none"
       d="m 692.3333,737.5734 c 0,0 9.97526,-13.25826 23.35978,-1.89404 -11.36422,-21.46574 -23.35978,1.89404 -23.35978,1.89404 z"
       id="path7115"
       inkscape:connector-curvature="0" />
    <path
       style="fill:none;stroke:#b7c8c4;stroke-width:2;stroke-linecap:butt;stroke-linejoin:miter;stroke-opacity:1"
       d="m 704.32886,726.66516 0,-5.96272"
       id="path7117"
       inkscape:connector-curvature="0" />
    <path
       style="fill:#ff80e5;stroke:none"
       d="m 698.00643,708.91032 c 0,0 14.01587,-4.29315 17.04633,-1.13642 0,0 -2.90419,12.6269 -8.33376,13.63705 -5.42957,1.01016 -7.57615,-5.17702 -8.71257,-12.50063 z"
       id="path7119"
       inkscape:connector-curvature="0" />
    <path
       style="fill:#1a1a1a;stroke:none"
       d="m 612.13712,707.2012 c 0.12627,0.63134 1.15175,29.99339 22.87002,30.24593 21.71828,0.25253 12.12184,-32.19862 12.12184,-32.19862 0,0 -15.67269,-5.11838 -34.99186,1.95269 z"
       id="path7125"
       inkscape:connector-curvature="0"
       sodipodi:nodetypes="cscc" />
    <path
       style="fill:#1a1a1a;stroke:none"
       d="m 731.22417,698.42998 c 0,0 0.25254,20.96067 13.13199,21.08694 12.87944,0.12627 13.748,-21.28083 12.35904,-28.09936 -1.26269,0.12627 -11.3489,-1.95269 -25.49103,7.01242 z"
       id="path7127"
       inkscape:connector-curvature="0"
       sodipodi:nodetypes="cscc" />
    <path
       style="fill:#ffffff;stroke:none"
       d="m 744.22989,693.00041 c 0,0 1.38896,5.93465 4.16688,5.80838 2.77792,-0.12627 5.05076,-3.03046 4.29315,-7.07107 0,0 -6.31345,-0.63135 -8.46003,1.26269 z"
       id="path7131"
       inkscape:connector-curvature="0" />
    <path
       style="fill:#b7c8c4;stroke:none"
       d="m 760.07666,691.54832 c -0.63135,0 -19.63484,-0.56821 -29.73637,7.38674 -1.26269,-0.50508 -4.04061,-1.38896 -4.04061,-1.38896 0,0 17.67767,-12.12182 33.77698,-5.99778 z"
       id="path7123"
       inkscape:connector-curvature="0"
       sodipodi:nodetypes="cccc" />
    <path
       style="fill:#ffffff;stroke:none"
       d="m 626.99989,704.334 c 0,0 1.18873,8.49066 7.75472,8.86946 6.56599,0.37881 5.55584,-8.9651 5.55584,-8.9651 0,0 -10.91145,-2.17721 -13.31056,0.0956 z"
       id="path7129"
       inkscape:connector-curvature="0"
       sodipodi:nodetypes="cscc" />
    <path
       style="fill:#b7c8c4;stroke:none"
       d="m 601.2933,711.68824 c 0,0 20.8344,-13.00572 52.02286,-4.67196 l 3.53553,-2.52538 c 0,0 -36.61803,-9.21764 -55.55839,7.19734 z"
       id="path7121"
       inkscape:connector-curvature="0" />
    <path
       style="fill:#b7c8c4;fill-opacity:1;stroke:none"
       d="m 671.61747,825.73211 c 0,0 -3.97049,2.67161 -4.60838,6.88877 0,0 3.429,-2.75135 6.24392,-3.24888"
       id="path7133"
       inkscape:connector-curvature="0"
       sodipodi:nodetypes="ccc" />
    <path
       style="fill:#b7c8c4;fill-opacity:1;stroke:none"
       d="m 689.05031,802.09689 c 0,0 0.88388,-2.71479 0.75761,-3.34613 0,0 3.40927,1.89403 3.15673,4.04061 -0.25254,2.14657 -3.91434,-0.69448 -3.91434,-0.69448 z"
       id="path7137"
       inkscape:connector-curvature="0" />
    <path
       style="fill:#b7c8c4;fill-opacity:1;stroke:none"
       d="m 685.26223,792.86459 c 0,0 -1.07328,0.63134 -1.89403,0.82075 0.1894,0.25253 2.20971,3.40926 4.48255,2.20971"
       id="path7139"
       inkscape:connector-curvature="0"
       sodipodi:nodetypes="ccc" />
    <path
       style="fill:#b7c8c4;fill-opacity:1;stroke:none"
       d="m 676.48653,801.14987 c 0,0 -0.0631,-2.96732 0.31568,-3.34613 0,0 -4.04061,-0.0631 -4.23002,3.40927 -0.1894,3.47239 3.91434,-0.0631 3.91434,-0.0631 z"
       id="path7143"
       inkscape:connector-curvature="0" />
    <path
       style="fill:#ececec;fill-opacity:1;stroke:#b7c8c4;stroke-width:4;stroke-linecap:butt;stroke-linejoin:miter;stroke-opacity:1"
       d="m 632.14286,630.93361 c 1.07143,-3.21429 3.92857,-100 -8.92857,-129.28571 -12.85715,-29.28572 -11.42857,-38.92858 -14.64286,-40 -3.21429,-1.07143 -38.21429,32.85714 -31.78571,103.21428 6.42857,70.35714 37.85714,83.92857 37.85714,83.92857 z"
       id="path7168"
       inkscape:connector-curvature="0" />
    <path
       style="fill:#b7c8c4;fill-opacity:1;stroke:none"
       d="m 604.07122,602.08669 c 0,-2.27285 -11.36422,-61.87185 -5.3033,-103.2881 0,0 -11.11168,45.70941 5.3033,103.2881 z"
       id="path7170"
       inkscape:connector-curvature="0"
       sodipodi:nodetypes="ccc" />
    <path
       style="fill:#b7c4c8;fill-opacity:1;stroke:none"
       d="m 694.03835,813.54159 c 0,0 11.16661,-5.26633 9.27257,-13.9789 0,0 3.63101,12.37607 -5.34925,15.87293 -4.0649,1.58285 -3.92332,-1.89403 -3.92332,-1.89403 z"
       id="path7174"
       inkscape:connector-curvature="0"
       sodipodi:nodetypes="ccsc" />
    <path
       style="fill:#b7c4c8;fill-opacity:1;stroke:none"
       d="m 123.21429,377.78428 c 0,0.71428 -6.25,20.71428 -24.285718,23.03571 -18.035715,2.32143 -17.410715,3.30357 -17.410715,3.30357 l 1.517858,2.94643 c 0,0 48.035715,14.375 56.964285,14.01785 l -1.96429,-6.16071 c 0,0 -22.5,-5.17857 -30.71428,-4.64286 0,0 15.53572,-18.57141 15.89286,-32.49999 z"
       id="path7176"
       inkscape:connector-curvature="0"
       transform="translate(573.98711,459.57236)"
       sodipodi:nodetypes="cscccccc" />
    <path
       style="fill:#b7c4c8;fill-opacity:1;stroke:none"
       d="m 634.52282,857.51354 c -5,5.35714 -14.87373,5.42213 -14.87373,5.42213 0,0 -0.58392,5.32374 2.95161,8.3542 0,0 8.31315,-3.81407 11.92212,-13.77633 z"
       id="path7178"
       inkscape:connector-curvature="0"
       sodipodi:nodetypes="cccc" />
    <path
       style="fill:#b7c4c8;fill-opacity:1;stroke:none"
       d="m 624.74728,840.08111 c 0.88388,1.01015 8.08122,5.6821 14.52094,1.76776 -6.81853,12.10152 -14.52094,-1.76776 -14.52094,-1.76776 z"
       id="path7180"
       inkscape:connector-curvature="0" />
    <path
       style="fill:#b7c4c8;fill-opacity:1;stroke:none"
       d="m 183.34269,276.60961 c 0,0 -24.24366,22.72843 -47.72971,30.80965 l 2.52538,-9.09137 c 0,0 20.96067,-4.04061 45.20433,-21.71828 z"
       id="path7184"
       inkscape:connector-curvature="0"
       transform="translate(573.98711,459.57236)" />
    <path
       style="fill:#b7c4c8;fill-opacity:1;stroke:none"
       d="m 103.16183,157.15906 c 0.25254,-1.26269 48.23478,-82.453693 49.3712,-89.651029 -47.98225,78.034289 -62.629453,90.408649 -62.629453,90.408649 0,0 10.101523,-1.26269 13.258253,-0.75762 z"
       id="path7190"
       inkscape:connector-curvature="0"
       transform="translate(573.98711,459.57236)"
       sodipodi:nodetypes="cccc" />
    <path
       style="fill:#b7c4c8;fill-opacity:1;stroke:none"
       d="m 49.876282,174.71047 5.682108,-5.93465 c 0,0 -0.252538,-104.550785 -8.586297,-119.197997 0,1.010153 8.712566,23.107241 2.904189,125.132647 z"
       id="path7192"
       inkscape:connector-curvature="0"
       transform="translate(573.98711,459.57236)"
       sodipodi:nodetypes="cccc" />
  </g>
</svg>
