<?xml version="1.0" encoding="UTF-8" standalone="no"?>
<!-- Created with Inkscape (http://www.inkscape.org/) -->

<svg
   xmlns:dc="http://purl.org/dc/elements/1.1/"
   xmlns:cc="http://creativecommons.org/ns#"
   xmlns:rdf="http://www.w3.org/1999/02/22-rdf-syntax-ns#"
   xmlns:svg="http://www.w3.org/2000/svg"
   xmlns="http://www.w3.org/2000/svg"
   xmlns:sodipodi="http://sodipodi.sourceforge.net/DTD/sodipodi-0.dtd"
   xmlns:inkscape="http://www.inkscape.org/namespaces/inkscape"
   id="svg3268"
   version="1.1"
   inkscape:version="0.48.4 r9939"
   width="703.76874"
   height="483.69754"
   sodipodi:docname="cloudsdale-factory.svg">
  <metadata
     id="metadata3274">
    <rdf:RDF>
      <cc:Work
         rdf:about="">
        <dc:format>image/svg+xml</dc:format>
        <dc:type
           rdf:resource="http://purl.org/dc/dcmitype/StillImage" />
        <dc:title />
      </cc:Work>
    </rdf:RDF>
  </metadata>
  <defs
     id="defs3272" />
  <sodipodi:namedview
     pagecolor="#ffffff"
     bordercolor="#666666"
     borderopacity="1"
     objecttolerance="10"
     gridtolerance="10"
     guidetolerance="10"
     inkscape:pageopacity="0"
     inkscape:pageshadow="2"
     inkscape:window-width="1362"
     inkscape:window-height="729"
     id="namedview3270"
     showgrid="false"
     inkscape:zoom="0.5109375"
     inkscape:cx="214.64993"
     inkscape:cy="267.15241"
     inkscape:window-x="0"
     inkscape:window-y="37"
     inkscape:window-maximized="0"
     inkscape:current-layer="layer2"
     fit-margin-top="0"
     fit-margin-left="0"
     fit-margin-right="0"
     fit-margin-bottom="0" />
  <g
     inkscape:groupmode="layer"
     id="layer2"
     inkscape:label="cloudsdale"
     style="display:inline"
     transform="translate(-301.75344,-118.96639)"
     sodipodi:insensitive="true">
    <path
       style="fill:#162d50;stroke:none"
       d="m 328.85871,243.05972 c 0,0 -4.32481,-0.51898 -4.67079,-3.80584 -0.34599,-3.28685 -2.07591,-9.1686 -2.07591,-9.1686 0,0 43.07513,-13.32042 71.2729,-0.51898 0,0 0,9.68758 -0.69197,10.03357 -0.69197,0.34598 -3.45985,0.86496 -4.6708,0.69197 0,0 -16.43428,18.51019 -14.53136,40.82623 0,0 8.30363,-0.34599 8.9956,0.17299 0.69197,0.51898 5.18978,11.07152 5.01679,18.16421 -0.173,7.09269 -5.88175,14.70436 -7.0927,16.0883 0,0 5.18978,11.4175 13.49342,15.74232 l 17.12625,-0.69197 c 0,0 -1.72992,7.78466 -2.94087,8.99561 -1.21095,1.21094 -5.01678,0.69197 -5.01678,0.69197 l -3.11386,27.5058 49.21568,-0.0809 c 0,0 9.78594,-15.90214 24.95413,-10.03058 0,0 -15.41284,-18.3486 -13.45566,-35.22934 1.95719,-16.88073 11.98777,-31.07033 19.08257,-28.3792 0,0 9.78594,-6.60551 16.39144,3.18043 0,0 13.70031,-12.23242 26.66667,1.46789 12.96636,13.7003 0.97859,26.42201 -4.89297,24.95412 -5.87156,-1.46789 -5.62691,-4.64831 -5.62691,-4.64831 0,0 0.73394,8.07339 7.5841,11.25382 6.85015,3.18043 7.0948,1.46789 14.6789,-2.93578 7.58409,-4.40367 28.62385,-8.0734 34.25076,-5.38226 0,0 12.47706,-4.64832 16.88073,0.48929 0,0 2.69114,-2.93578 4.64832,-3.66972 0,0 -1.22324,-5.62691 -0.24465,-7.33945 0,0 -31.31498,5.13761 -37.92049,-15.1682 -6.6055,-20.30581 -3.42507,-32.29358 -12.96636,-34.98471 -9.54128,-2.69113 -9.29663,5.62691 -6.36085,8.0734 2.93578,2.44648 5.13761,-1.71254 3.91437,-3.18043 0,0 -2.20183,3.60856 -2.50764,1.03975 -0.30581,-2.5688 2.5688,-4.09786 3.79205,-2.87461 1.22324,1.22324 2.5688,4.52599 -0.30582,6.6055 -2.87461,2.07951 -10.03058,1.46789 -8.80733,-6.97248 0,0 1.98427,-5.34649 4.40616,-6.38444 0,0 -9.1686,6.40072 -10.20656,-3.28686 0,0 -0.17299,16.0883 -13.14742,16.0883 -12.97444,0 -25.77588,-2.94087 -25.77588,-14.87735 0,-11.93648 15.9153,-16.78027 15.9153,-16.78027 0,0 -15.39633,-5.88175 -15.56932,-18.68319 -0.17299,-12.80145 0.51898,-25.77588 0.51898,-25.77588 0,0 -6.05474,-3.97883 -3.11387,-7.09269 l 0.34599,-3.97883 c 0,0 -32.86857,0.86496 -34.07952,-7.61167 0,0 -34.42551,2.59489 -37.02039,-8.47663 0,0 -0.51898,-3.63284 1.90291,-4.32481 0,0 -8.82261,0.51897 -9.1686,-4.15182 -0.34598,-4.6708 9.86057,-18.68319 55.18461,-21.10509 0,0 19.89413,2.4219 39.26929,0.69197 0,0 -4.6708,-7.78466 0.34598,-11.59049 5.01679,-3.80584 12.28247,-1.55694 12.28247,-1.55694 0,0 -1.72992,-3.97882 3.45985,-3.97882 5.18978,0 14.70436,0.34598 19.02917,2.2489 0,0 5.88175,-8.99561 23.181,-1.21095 17.29925,7.78466 35.29046,24.04596 50.5138,23.69997 0,0 23.181,1.03796 18.68319,-3.63284 0,0 -22.14304,-2.4219 -18.51019,-0.51898 0,0 5.18977,3.45985 12.45545,1.90292 0,0 -5.53576,0 -6.7467,-1.38394 0,0 17.29925,0.69197 1.90291,3.28686 0,0 -14.35837,-1.55694 -10.89852,-5.18978 3.45985,-3.63284 25.94887,-1.72992 26.12186,3.28686 0,0 1.55694,10.20656 -27.33281,4.32481 -0.34598,0.17299 -13.32042,-5.53576 -13.32042,-5.53576 0,0 18.16421,17.12626 26.98683,16.95327 0,0 12.80144,0.51897 12.80144,-3.11387 0,-3.63284 -10.72553,-3.63284 -10.20656,-2.2489 0.51898,1.38394 2.94088,1.72992 3.80584,1.72992 0,0 -2.94087,2.94088 -5.01678,0.34599 -2.07591,-2.59489 -1.21095,-3.80584 1.38394,-4.32481 2.59488,-0.51898 13.8394,-1.03796 12.45546,6.05473 0,0 -8.64963,9.16861 -29.58172,-1.03795 0,0 -19.20217,-20.7591 -35.98244,-23.18099 0,0 -8.99561,-0.51898 -11.4175,-3.80584 0,0 5.01678,3.80584 2.42189,9.86057 l 1.90292,3.45985 c 0,0 7.26569,-2.07591 9.3416,1.03796 2.07591,3.11386 2.07591,4.4978 3.11386,3.63284 1.03796,-0.86496 7.78466,-5.01678 8.99561,0.51898 0,0 3.97883,-0.173 2.94087,2.94087 -1.03795,3.11386 -6.05473,7.43868 -6.05473,7.43868 l -0.173,10.37954 c 0,0 1.72993,0.86497 2.07591,3.28686 0,0 10.03357,-3.45985 20.7591,15.91531 0,0 10.28662,9.21009 7.35084,19.72997 -2.93577,10.51988 -4.89296,23.97553 -4.89296,23.97553 0,0 3.42508,7.09481 -4.40367,12.23242 l -0.97859,33.02752 c 0,0 5.38226,1.71254 6.85015,9.05199 0,0 14.92355,42.56881 38.16514,45.25994 0,0 9.54128,1.22324 10.76452,-3.42508 0,0 -6.6055,-4.40367 -4.89296,-9.78593 1.71253,-5.38226 7.58409,-10.76453 12.96636,-7.0948 0,0 2.44648,-2.93578 4.15902,-1.46789 0,0 -1.22324,-33.02752 -19.32722,-28.13456 0,0 1.71254,10.27523 -9.29664,16.14679 -11.00917,5.87156 -26.66666,2.93578 -20.7951,-21.2844 l 0.73394,-23.97554 c 0,0 -7.82874,-2.93578 -7.82874,-6.6055 0,-3.66973 4.15902,-3.91437 4.15902,-3.91437 0,0 -0.4893,-10.03059 5.13761,-9.78594 5.62691,0.24465 5.38227,5.13762 5.38227,5.13762 0,0 3.66972,-14.6789 12.96636,-11.25383 1.95718,0.9786 12.72171,1.71254 11.49847,10.76453 0,0 6.11621,1.22324 4.40367,5.87156 0,0 -1.22324,7.0948 -7.5841,5.38226 l -0.4893,11.25383 c 0,0 26.42202,-0.73395 41.34557,10.76452 0,0 3.91437,0.9786 5.62691,4.89297 0,0 2.93578,-24.95413 10.51988,-31.31499 0,0 8.31804,-22.75229 14.92355,-24.70948 0,0 3.66972,-5.13761 7.33944,-2.20183 0,0 3.66973,-3.42508 6.36086,1.46789 0,0 4.64832,-6.36086 10.27523,-2.69113 0,0 9.29664,-4.64832 14.92355,-1.95719 0,0 9.29663,-22.263 29.84709,-20.55046 0,0 12.72172,0 21.28441,11.00918 0,0 1.71253,-15.6575 12.96636,-11.74312 0,0 6.85015,1.46789 8.07339,7.0948 0,0 11.74312,-2.93578 13.45566,7.0948 0,0 17.37003,10.76453 4.64832,24.95413 -12.72172,14.1896 -13.45566,-4.89297 -13.45566,-4.89297 l 0.24465,84.15902 c 0,0 22.50764,-8.07339 28.13455,-5.13761 5.62692,2.93578 8.80734,7.33945 8.80734,7.33945 0,0 14.43425,-3.91438 19.08257,-0.9786 0,0 15.1682,-4.15902 20.06117,-0.48929 0,0 4.64831,-18.10398 10.51987,-14.43425 1.46789,-0.4893 13.70031,-15.90214 17.61468,-14.43425 3.91437,1.46789 10.51988,6.6055 10.51988,6.6055 0,0 3.42508,-7.5841 8.07339,-1.71254 4.64832,5.87156 9.05202,11.49847 5.38222,23.24159 0,0 1.9572,7.33945 -6.60546,7.33945 l -81.46789,0 c 0,0 4.40367,16.14679 -1.46789,28.37921 -5.87156,12.23241 -17.37003,14.6789 -17.37003,14.6789 0,0 -0.97859,7.82874 -9.29663,7.58409 0,0 -3.18043,9.54129 -16.14679,13.21101 l -0.24465,7.82875 c 0,0 37.92049,-0.4893 51.37615,19.57187 0,0 60.67278,12.72171 63.11926,19.81651 2.44648,7.0948 -8.31804,23.48624 -38.89908,28.13456 0,0 -11.00918,3.18042 -16.63609,8.31804 l 2.69113,7.0948 c 0,0 4.64832,-2.20183 2.69114,1.22324 0,0 3.42507,-3.42507 6.85015,0 0,0 1.95719,8.0734 5.38226,0.97859 0,0 9.78593,-15.41284 12.96636,-14.1896 3.18043,1.22324 5.87156,5.87156 5.87156,5.87156 0,0 8.0734,-12.47706 13.45566,-11.74312 5.38226,0.73395 11.00917,6.60551 8.07339,17.85933 0,0 8.0734,8.07339 6.60551,12.72171 -1.46789,4.64832 -3.66973,9.05199 -3.66973,9.05199 0,0 11.98777,-3.66972 16.14677,4.15902 0,0 14.4343,-12.23241 23.4863,-5.13761 9.0519,7.0948 9.2966,18.83792 9.2966,18.83792 0,0 12.4771,10.27523 7.3394,24.22018 0,0 -2.6911,7.5841 -8.5626,4.40367 0,0 -3.4251,22.01835 -13.7004,20.30581 -10.2752,-1.71254 -15.4128,-11.49847 -16.636,-17.12538 -0.4893,0.97859 -4.893,18.59327 -14.92358,19.32722 -10.03058,0.73394 -17.61468,-16.63609 -17.61468,-16.63609 0,0 9.05199,32.04893 -3.91437,37.92049 -12.96637,5.87156 -22.01835,-11.74312 -22.01835,-11.74312 0,0 -10.27523,6.85015 -16.14679,2.69113 -5.87156,-4.15902 -7.5841,-11.98777 -7.5841,-11.98777 0,0 -7.82875,-0.73394 -8.80734,-3.66972 -0.97859,-2.93578 -3.18043,-7.33945 -3.18043,-7.33945 0,0 -10.76452,9.54128 -14.1896,3.66972 -3.42508,-5.87155 2.44648,-18.83792 2.44648,-18.83792 0,0 -11.25382,0.4893 -11.25382,2.44649 0,1.95718 3.66973,16.39143 -14.43425,14.43425 0,0 4.89297,14.43425 -5.62691,17.37003 -10.51988,2.93578 -13.21101,0.24465 -13.21101,0.24465 0,0 -4.89297,10.27523 -14.6789,4.15902 -9.78593,-6.11621 -8.07339,-12.96636 -8.07339,-12.96636 0,0 -8.5627,8.56269 -11.49848,6.85015 -2.93578,-1.71254 -3.42507,-8.31804 -3.42507,-8.31804 l -5.38226,6.6055 c 0,0 7.58409,16.88074 -1.71254,23.24159 -9.29664,6.36086 -49.17432,17.12539 -59.44954,6.85016 -10.27523,-10.27523 -6.60551,-22.50765 -6.60551,-22.50765 0,0 -28.3792,22.99694 -54.31193,-2.20183 0,0 3.42508,20.55045 -10.51987,20.55045 -13.94496,0 -18.10398,-14.67889 -18.10398,-14.67889 0,0 -9.29664,7.82874 -16.14679,7.58409 -6.85015,-0.24465 -14.43425,-12.96636 -14.43425,-12.96636 0,0 -10.03058,-3.66972 -11.74312,-9.54128 -1.22324,-0.24465 -12.47706,-2.20184 -14.43425,-4.64832 0,0 -18.10397,9.05199 -24.70948,0.24465 0,0 -32.04893,9.54128 -47.70642,-35.71866 0,0 -16.63609,35.47401 -42.32416,28.13456 -25.68807,-7.33945 -39.38838,-25.93272 -37.67584,-47.46177 0,0 -7.5841,-2.20184 -6.85015,-10.51988 0,0 -1.95719,29.11315 -11.98777,26.91131 -10.03058,-2.20183 -11.74312,-13.45565 -11.74312,-13.45565 0,0 -22.50765,31.55963 -33.27217,12.47706 -10.76453,-19.08257 2.69113,-45.74924 2.69113,-45.74924 0,0 -4.40367,1.71254 -6.85015,0.73395 0,0 -3.18043,16.88073 -10.51988,13.94495 -7.33945,-2.93578 -12.72171,-13.94495 -11.74312,-30.33639 L 320,452.35474 c 0,0 -1.22324,-3.91437 -1.22324,-8.0734 0,0 -18.83792,-11.00917 -16.88073,-22.75229 1.95718,-11.74312 10.76452,-10.51988 10.76452,-10.51988 0,0 15.1682,-4.64831 16.39144,4.89297 1.22324,9.54128 -3.91437,15.1682 -9.29664,13.45566 0,0 3.42508,12.96636 14.6789,8.07339 11.25382,-4.89296 19.81652,-10.51988 27.40061,-8.31804 0,0 29.11315,-8.56269 35.96331,-1.95719 0,0 3.18042,3.66973 3.42507,-0.48929 0.4893,-2.69114 -4.89296,-16.88074 3.18043,-17.37003 8.0734,-0.4893 8.56269,1.95718 8.56269,1.95718 0,0 4.40367,-4.40367 7.0948,-1.22324 2.69113,3.18043 4.40367,4.40367 4.40367,4.40367 0,0 4.40367,-14.43425 16.88074,-13.70031 0,0 -4.15902,-2.20183 -9.29664,-8.07339 0,0 -18.34862,11.98777 -26.66667,-1.22324 0,0 -10.76452,7.82874 -19.08256,-1.95719 -8.31805,-9.78593 -45.50459,-28.3792 -76.81958,-20.55046 0,0 -6.36085,0.24465 -1.22324,-1.95718 5.13762,-2.20184 17.12538,-1.95719 17.12538,-1.95719 0,0 -3.18042,-25.19878 -4.40367,-25.44343 -1.22324,-0.24464 -3.18042,-0.48929 -3.42507,-3.18042 -0.24465,-2.69114 -0.4893,-5.87156 -0.4893,-5.87156 l 15.90214,0 c 0,0 4.40367,-6.60551 7.0948,-6.36086 2.69113,0.24465 5.38227,-5.62691 5.13762,-8.07339 l -5.62691,-0.24465 c 0,0 -2.20184,6.6055 -5.13762,6.6055 -2.93578,0 -10.03058,0.24465 -11.00917,-0.24465 -0.9786,-0.48929 -17.61468,-19.81651 -3.66973,-48.19571 0,0 2.69113,-1.46789 4.89297,-1.22325 2.20183,0.24465 11.49847,0.73395 11.49847,0.73395 0,0 3.18043,4.40367 2.69113,8.31804 l 9.05199,0.24465 c 0,0 -0.63121,-32.77964 -19.0312,-39.01979 z"
       id="path3317"
       inkscape:connector-curvature="0" />
    <path
       style="fill:#0b1728;stroke:none"
       d="m 589.8471,573.70031 c 0.97859,2.93578 5.38226,11.00917 13.21101,11.98776 7.82874,0.9786 17.61467,-7.58409 17.61467,-7.58409 0,0 7.33945,17.61467 14.43425,15.41284 7.09481,-2.20184 12.96637,-20.06116 12.96637,-20.06116 0,0 -17.85933,10.03058 -27.15597,4.64832 0,0 -22.50763,4.89297 -31.07033,-4.40367 z"
       id="path3331"
       inkscape:connector-curvature="0" />
    <g
       id="g3389"
       transform="translate(0,440)">
      <path
         inkscape:connector-curvature="0"
         id="path3319"
         d="m 329.55068,-196.94028 c 0,0 18.33721,9.51459 17.81823,37.71236 l 27.33281,-1.38394 c 0.173,-1.03795 1.21095,-35.98244 13.32042,-40.13426 0,0 -49.82184,-5.36276 -58.47146,3.80584 z"
         style="fill:#0b1728;stroke:none" />
      <path
         inkscape:connector-curvature="0"
         id="path3321"
         d="m 333.45566,-109.3578 c 0,0 2.56881,-3.5474 6.11621,-5.74923 3.5474,-2.20184 5.99388,-5.74924 6.1162,-9.17432 l 33.63915,0.36698 c 0,0 9.05199,9.54128 12.72171,13.94495 -0.61162,0.36697 -58.59327,0.61162 -58.59327,0.61162 z"
         style="fill:#0b1728;stroke:none" />
      <path
         inkscape:connector-curvature="0"
         id="path3323"
         d="m 339.32722,-124.52599 c 0,0 -2.07951,6.48318 -3.91438,4.89296 -1.83486,-1.59021 -5.74923,-9.66361 -6.48318,-24.46483 -0.73394,-14.80122 3.30276,-23.11927 5.25994,-22.14067 1.95719,0.97859 3.05811,6.85015 3.05811,6.85015 0,0 -3.42508,0.12232 -3.91438,1.83486 -0.48929,1.71254 0,27.15597 1.95719,30.33639 1.95719,3.18043 4.0367,2.69114 4.0367,2.69114 z"
         style="fill:#0b1728;stroke:none" />
      <path
         inkscape:connector-curvature="0"
         id="path3325"
         d="m 505.13806,-188.46365 c 0,0 -20.58611,-2.2489 -18.33721,7.43868 2.24891,9.68758 26.12187,12.28246 30.27369,7.43867 4.15182,-4.84379 6.05473,-11.4175 6.05473,-11.4175 0,0 5.36277,8.82262 9.86058,2.2489 4.4978,-6.57371 3.80583,-12.97443 3.80583,-12.97443 0,0 5.53576,1.90291 8.64963,-0.173 3.11386,-2.07591 -1.38394,1.21095 12.97443,0.86497 14.35838,-0.34599 38.40433,-6.57372 42.55615,-19.37516 4.15182,-12.80145 10.03357,-28.88975 1.03796,-36.8474 0,0 -18.33721,0 -21.27808,7.26568 0,0 -21.10508,-18.16421 -46.53498,0.173 -25.42989,18.3372 -29.06273,55.35759 -29.06273,55.35759 z"
         style="fill:#0b1728;stroke:none" />
      <path
         inkscape:connector-curvature="0"
         id="path3327"
         d="m 811.00918,-111.19266 c 0,0 34.25076,11.25382 38.65443,20.55046 4.40367,9.29663 -0.73394,17.37003 -5.13761,18.59327 0,0 -7.82875,11.25382 -14.43426,12.96636 l -2.20183,-4.89297 c 0,0 3.18043,5.62692 -6.36086,12.47707 0,0 -26.91131,21.7737 -78.28746,7.33945 0,0 -41.10092,-10.03058 -51.37615,-8.56269 0,0 12.23242,1.46789 10.51988,10.03058 -1.71254,8.56269 -35.22936,16.39144 -45.50458,9.54128 -10.27523,-6.85015 -18.83793,-19.32721 2.44648,-25.44342 21.2844,-6.11621 78.28746,2.20183 96.88073,-12.96636 18.59327,-15.1682 10.27523,-17.61468 10.27523,-17.61468 0,0 3.66973,-12.72172 10.03058,-12.72172 0,0 0,11.25383 2.69113,10.76453 2.69114,-0.4893 1.71254,-11.00917 1.71254,-11.00917 0,0 0,11.00917 3.18043,9.78593 3.18043,-1.22324 3.18043,-10.27523 3.18043,-10.27523 0,0 -0.97859,6.11621 1.71254,7.0948 2.69113,0.97859 2.69113,-8.07339 2.69113,-8.07339 0,0 18.34863,-1.22324 19.32722,-7.5841 z"
         style="fill:#0b1728;stroke:none" />
      <path
         inkscape:connector-curvature="0"
         id="path3335"
         d="m 649.54129,132.23242 c 2.20183,2.20183 25.68807,24.22018 55.53516,0.73394 0.4893,1.46789 -5.62691,31.80428 26.42202,26.91132 0,0 38.16514,4.89296 38.40979,-30.3364 0,0 6.11621,-8.07339 7.0948,-7.58409 0.97859,0.48929 -2.20184,6.36085 3.42508,6.36085 5.62691,0 12.47706,-4.64832 12.47706,-4.64832 0,0 4.40367,17.12539 15.65749,13.94496 11.25383,-3.18043 8.80734,-5.62691 8.80734,-5.62691 0,0 18.59327,2.69113 18.10398,-4.15902 -0.4893,-6.85016 -3.18043,-16.63609 -3.18043,-16.63609 0,0 -14.1896,0.4893 -16.14679,-7.82875 0,0 -5.87156,-0.24464 -6.11621,-4.64831 -0.24465,-4.40367 -0.24465,-4.40367 -0.24465,-4.40367 l -2.93578,1.95718 c 0,0 -1.95718,7.5841 -7.58409,6.11621 -5.62691,-1.46789 -11.74312,0 -11.74312,0 0,0 -0.4893,3.91437 -5.13762,3.91437 -4.64832,0 -2.69113,6.36086 -10.76452,4.15903 -8.0734,-2.20184 2.93578,-0.24465 -13.70031,0.97859 -16.63608,1.22324 -19.08257,4.15902 -24.95413,-2.93578 0,0 -16.39143,-1.46789 -18.10397,-5.62691 -0.73395,0.73394 -6.36086,8.56269 -8.56269,2.69113 l 1.22324,-8.56269 c 0,0 -12.23242,17.85932 -19.08257,9.29663 -6.85015,-8.56269 -6.60551,-3.18042 -6.60551,-3.18042 0,0 -13.45565,17.61467 -26.66666,9.29663 0,0 7.82875,20.55047 -5.62691,19.81652 z"
         style="fill:#0b1728;stroke:none" />
    </g>
    <g
       id="g3383"
       transform="translate(0,440)">
      <path
         inkscape:connector-curvature="0"
         id="path3346"
         d="m 754.49541,-230.33639 c 2.20184,-0.4893 24.46484,-29.8471 51.6208,-6.60551 l -8.31804,3.91438 -0.24465,-2.93578 c 0,0 -14.92355,-11.25383 -36.9419,13.7003 -0.73394,-1.22324 -6.11621,-8.07339 -6.11621,-8.07339 z"
         style="fill:#afc6e9;stroke:none" />
      <path
         inkscape:connector-curvature="0"
         id="path3348"
         d="m 739.08257,-223.24159 c 0,0 -7.0948,4.89297 -7.82875,5.87156 -0.73394,0.97859 -7.58409,90.27523 -4.15902,111.55963 0,0 7.5841,-6.6055 12.72172,1.46789 0,0 12.96636,25.68807 -9.78594,21.03976 0,0 -13.7003,-13.45566 -14.6789,-36.9419 -0.48929,-0.73394 -0.97859,-8.80734 -4.15902,-13.70031 0,-2.20183 1.95719,-73.63914 1.71254,-78.53211 -0.24465,-4.89296 3.91437,-12.47706 7.5841,-12.47706 3.66972,0 4.15902,2.20184 4.15902,2.20184 0,0 2.93578,-2.44649 4.64832,0 0,0 4.89296,-5.62691 9.78593,-0.4893 z"
         style="fill:#afc6e9;stroke:none" />
      <path
         inkscape:connector-curvature="0"
         id="path3350"
         d="m 325.13762,-201.22324 c 1.22324,-0.24465 37.18654,-14.92355 62.14067,-10.03058 -11.25382,-6.85015 -58.47095,-1.71254 -62.62997,0.48929 -4.15902,2.20184 0.4893,7.5841 0.4893,9.54129 z"
         style="fill:#afc6e9;fill-opacity:1;stroke:none" />
      <path
         inkscape:connector-curvature="0"
         id="path3352"
         d="m 343.56308,0.44414 c 1.03795,0 38.57732,-18.85618 52.7627,-12.10947 14.18539,6.74671 19.02918,8.82262 18.85618,12.10947 -0.17299,3.28686 -20.93209,-0.34598 -29.23573,1.72993 -8.30364,2.07591 -25.42989,8.99561 -16.60727,25.08391 0,0 -2.94088,8.13065 -6.40073,-1.72993 -3.45985,-9.86057 0,-21.79705 7.43868,-25.2569 7.43868,-3.45985 25.4299,-6.05474 28.71675,-5.01678 0,0 -19.02916,-9.3416 -55.53058,5.18977 z"
         style="fill:#afc6e9;fill-opacity:1;stroke:none" />
    </g>
  </g>
</svg>
