<?xml version="1.0" encoding="UTF-8" standalone="no"?>
<!-- Created with Inkscape (http://www.inkscape.org/) -->

<svg
   xmlns:dc="http://purl.org/dc/elements/1.1/"
   xmlns:cc="http://creativecommons.org/ns#"
   xmlns:rdf="http://www.w3.org/1999/02/22-rdf-syntax-ns#"
   xmlns:svg="http://www.w3.org/2000/svg"
   xmlns="http://www.w3.org/2000/svg"
   xmlns:xlink="http://www.w3.org/1999/xlink"
   xmlns:sodipodi="http://sodipodi.sourceforge.net/DTD/sodipodi-0.dtd"
   xmlns:inkscape="http://www.inkscape.org/namespaces/inkscape"
   id="svg3103"
   version="1.1"
   inkscape:version="0.48.4 r9939"
   width="442.44681"
   height="650.09308"
   sodipodi:docname="applejack.svg">
  <metadata
     id="metadata3109">
    <rdf:RDF>
      <cc:Work
         rdf:about="">
        <dc:format>image/svg+xml</dc:format>
        <dc:type
           rdf:resource="http://purl.org/dc/dcmitype/StillImage" />
        <dc:title />
      </cc:Work>
    </rdf:RDF>
  </metadata>
  <defs
     id="defs3107">
    <linearGradient
       id="linearGradient4606">
      <stop
         style="stop-color:#4c5903;stop-opacity:1;"
         offset="0"
         id="stop4608" />
      <stop
         style="stop-color:#5aa02c;stop-opacity:1;"
         offset="1"
         id="stop4610" />
    </linearGradient>
    <linearGradient
       id="linearGradient4574">
      <stop
         style="stop-color:#223c00;stop-opacity:1;"
         offset="0"
         id="stop4576" />
      <stop
         style="stop-color:#00150b;stop-opacity:1;"
         offset="1"
         id="stop4578" />
    </linearGradient>
    <linearGradient
       id="linearGradient4564">
      <stop
         style="stop-color:#9eaa22;stop-opacity:1;"
         offset="0"
         id="stop4566" />
      <stop
         style="stop-color:#7c8e3a;stop-opacity:1;"
         offset="1"
         id="stop4568" />
    </linearGradient>
    <linearGradient
       inkscape:collect="always"
       xlink:href="#linearGradient4606"
       id="linearGradient3207"
       gradientUnits="userSpaceOnUse"
       x1="633.08423"
       y1="309.04187"
       x2="654.06451"
       y2="257.75964" />
    <linearGradient
       inkscape:collect="always"
       xlink:href="#linearGradient4606"
       id="linearGradient3209"
       gradientUnits="userSpaceOnUse"
       x1="632.25732"
       y1="308.15256"
       x2="650.88531"
       y2="255.94604" />
    <linearGradient
       inkscape:collect="always"
       xlink:href="#linearGradient4574"
       id="linearGradient3211"
       gradientUnits="userSpaceOnUse"
       x1="643.1767"
       y1="245.64413"
       x2="647.04218"
       y2="289.11984" />
    <linearGradient
       inkscape:collect="always"
       xlink:href="#linearGradient4574"
       id="linearGradient3213"
       gradientUnits="userSpaceOnUse"
       x1="649.93872"
       y1="247.87216"
       x2="641.9812"
       y2="286.69553" />
  </defs>
  <sodipodi:namedview
     pagecolor="#ffffff"
     bordercolor="#666666"
     borderopacity="1"
     objecttolerance="10"
     gridtolerance="10"
     guidetolerance="10"
     inkscape:pageopacity="0"
     inkscape:pageshadow="2"
     inkscape:window-width="1362"
     inkscape:window-height="729"
     id="namedview3105"
     showgrid="false"
     inkscape:zoom="0.70710678"
     inkscape:cx="222.65906"
     inkscape:cy="325.95423"
     inkscape:window-x="0"
     inkscape:window-y="37"
     inkscape:window-maximized="0"
     inkscape:current-layer="layer2"
     fit-margin-top="0"
     fit-margin-left="0"
     fit-margin-right="0"
     fit-margin-bottom="0" />
  <g
     inkscape:groupmode="layer"
     id="layer2"
     inkscape:label="aj"
     style="display:inline"
     transform="translate(-570.36703,-17.8125)"
     sodipodi:insensitive="true">
    <path
       style="fill:#e1b16b;fill-opacity:1;stroke:#ce9b5d;stroke-width:4;stroke-linecap:butt;stroke-linejoin:miter;stroke-opacity:1"
       d="m 795.2078,96.5 c 0,0 -31,-1 -46.5,20 -15.5,21 -22.5,46.5 -22.5,64 0,17.5 17,33 17,33 z"
       id="path3984"
       inkscape:connector-curvature="0" />
    <path
       style="fill:#e1b16b;fill-opacity:1;stroke:#ce9b5d;stroke-width:4;stroke-linecap:butt;stroke-linejoin:miter;stroke-opacity:1"
       d="m 959.2078,119.5 c 0,0 16.5,-19 14.5,-33.5 -2,-14.5 -30.5,-44.5 -61,-63.5 0,0 10.5,30.5 3.5,39.5 -7,9 -31.5,19.5 -43.5,1 -12,-18.5 -2,-33 -2,-33 0,0 -79,41 -113,124.5 -34,83.5 -6,147 23.5,168.5 0,0 8,0 18,-14.5 10,-14.5 160,-189 160,-189 z"
       id="path3982"
       inkscape:connector-curvature="0" />
    <path
       style="fill:#ffeeaa;fill-opacity:1;stroke:#ffe680;stroke-width:4;stroke-linecap:butt;stroke-linejoin:miter;stroke-opacity:1"
       d="m 783.25195,363.14237 c 0,0 -40.44386,-86.83535 -123.11588,-68.39771 -82.67197,18.43764 -107.05727,149.8802 -72.56105,208.16695 34.49624,58.28675 70.182,64.23437 106.46252,40.44386 36.28053,-23.7905 1.18953,-85.05106 -2.97381,-92.18822 -4.16334,-7.13715 -20.22193,-44.01244 4.16334,-67.80295 24.38527,-23.7905 59.47627,-14.2743 71.96629,-3.56857 0,0 11.89525,-14.27431 16.05859,-16.65336 z"
       id="path3960"
       inkscape:connector-curvature="0" />
    <path
       style="fill:none;stroke:#ffe680;stroke-width:3;stroke-linecap:butt;stroke-linejoin:miter;stroke-opacity:1"
       d="m 773.14098,373.25334 c 0,0 -66.01866,-52.33912 -104.67823,-17.84288 -38.65958,34.49623 0,96.94632 5.35286,107.05729 5.35287,10.11096 36.87529,83.86154 -13.67954,91.59345 -50.55483,7.73192 -73.75058,-77.31915 -62.45009,-144.52734 11.3005,-67.20818 54.12341,-99.92013 86.83536,-99.92013 32.71195,0 77.31915,21.41146 93.97251,57.69198 z"
       id="path3962"
       inkscape:connector-curvature="0" />
    <path
       style="fill:#ffb35e;fill-opacity:1;stroke:#ff8336;stroke-width:4;stroke-linecap:butt;stroke-linejoin:miter;stroke-opacity:1"
       d="m 840.34917,481.79753 c 0,0 -35.091,44.01244 -12.49002,122.52112 0,0 1.48691,28.54861 -1.78428,28.54861 -3.2712,0 -24.68266,0.59477 -24.68266,0.59477 0,0 -44.90458,-109.43634 16.35598,-165.64142 0,0 7.13715,9.21882 22.60098,13.97692 z"
       id="path3164"
       inkscape:connector-curvature="0" />
    <path
       style="fill:#ffb35e;fill-opacity:1;stroke:#ff8336;stroke-width:4;stroke-linecap:butt;stroke-linejoin:miter;stroke-opacity:1"
       d="m 820.4246,471.68657 c 0,0 -30.0355,40.44386 -28.2512,91.29607 1.7843,50.85222 17.2481,70.77677 17.5455,73.15582 0.2974,2.37905 3.5686,11.59787 -4.1633,13.67954 -7.732,2.08167 -49.6627,6.24501 -61.558,-1.18953 -11.8952,-7.43453 -11.0031,-19.0324 -11.0031,-30.63028 0,-11.59787 0,-84.15892 21.4115,-123.71064 0,0 2.9738,-7.13715 17.8428,-7.43453 0,0 -18.1402,-52.93389 -13.3821,-77.31916 4.7581,-24.38527 19.3298,-43.12029 31.5224,-47.58101 12.1926,-4.46072 30.0355,109.73372 30.0355,109.73372 z"
       id="path3166"
       inkscape:connector-curvature="0" />
    <path
       inkscape:connector-curvature="0"
       id="path3940"
       d="m 932.83477,328.94352 c 0,0 30.3329,49.3653 27.35909,82.37463 -2.97382,33.00933 -25.5748,60.6658 -50.85221,67.50557 -25.27742,6.83977 -75.53487,11.89525 -98.13585,-20.22193 0,0 -23.27837,-88.92889 -21.59613,-95.65786 1.68224,-6.72898 71.49533,-22.71029 71.49533,-22.71029 z"
       style="fill:#ffb35e;fill-opacity:1;stroke:none" />
    <path
       style="fill:none;stroke:#ff8336;stroke-width:4;stroke-linecap:butt;stroke-linejoin:miter;stroke-opacity:1"
       d="m 932.20977,328.06852 c 0,0 30.9579,50.2403 27.98409,83.24963 -2.97382,33.00933 -25.5748,60.6658 -50.85221,67.50557 -25.27742,6.83977 -75.53487,11.89525 -98.13585,-20.22193"
       id="path3168"
       inkscape:connector-curvature="0"
       sodipodi:nodetypes="cssc" />
    <path
       style="fill:#ffb35e;fill-opacity:1;stroke:#ff8336;stroke-width:4;stroke-linecap:butt;stroke-linejoin:miter;stroke-opacity:1"
       d="m 889.03257,478.13318 c 0,0 6.97897,90.04439 32.21261,149.34346 0,0 15.56075,24.39252 14.71963,28.59813 -0.84112,4.2056 4.20561,9.67289 -54.6729,7.99065 0,0 -20.60747,-2.1028 -25.23364,-9.6729 -4.62617,-7.57009 -24.12736,-94.91271 -6.04324,-174.3987"
       id="path3137"
       inkscape:connector-curvature="0"
       sodipodi:nodetypes="ccscsc" />
    <path
       style="fill:#ffb35e;fill-opacity:1;stroke:#ff8336;stroke-width:4;stroke-linecap:butt;stroke-linejoin:miter;stroke-opacity:1"
       d="m 928.22123,470.03032 c 0,0 1.34235,44.47916 4.01878,53.10322 2.67643,8.62406 1.48691,20.8167 -0.59476,26.76432 -2.08167,5.94763 -22.00622,79.69821 -80.29297,115.08659 0,0 -9.5162,2.97381 -13.67954,-1.78429 -4.16334,-4.7581 -21.70884,-26.16956 -13.38216,-60.96318 0,0 8.92144,-7.43453 19.0324,-13.38216 10.11097,-5.94763 29.73814,-22.00622 52.04174,-49.06792 0,0 -3.27119,-21.21072 5.05548,-58.38339 0,0 20.26159,-5.00675 27.80103,-11.37319 z"
       id="path3133"
       inkscape:connector-curvature="0"
       sodipodi:nodetypes="csscscsccc" />
    <path
       style="fill:#ff8336;fill-opacity:1;stroke:none"
       d="m 896.50754,538.65012 c 0,0 1.64507,0.69352 3.95815,-1.30414 0,0 -0.5257,4.39894 -5.25701,4.2938 z"
       id="path3135"
       inkscape:connector-curvature="0"
       sodipodi:nodetypes="cccc" />
    <path
       style="fill:#ff8336;fill-opacity:1;stroke:none"
       d="m 891.38537,482.6986 c 0,0 -1.36682,-8.83178 -0.73598,-11.98598 -3.1542,2.31309 -3.57477,12.40654 -3.57477,12.40654 z"
       id="path3139"
       inkscape:connector-curvature="0" />
    <path
       style="fill:#ff8336;fill-opacity:1;stroke:none"
       d="m 851.64238,481.33177 c 0,0 1.47196,-7.88551 3.99533,-10.19859 0,0 -2.73365,-0.63084 -7.88552,9.67289 z"
       id="path3141"
       inkscape:connector-curvature="0" />
    <path
       style="fill:#ff8336;fill-opacity:1;stroke:none"
       d="m 832.61726,615.47045 c 0,0 10.85441,18.88372 12.49001,37.91613 0,0 -0.89213,-28.10255 -12.49001,-37.91613 z"
       id="path3143"
       inkscape:connector-curvature="0" />
    <path
       inkscape:connector-curvature="0"
       id="path4600"
       d="m 965.86312,172.35127 c 0,0 9.11754,-6.62374 7.2164,-12.65567 4.86283,5.28376 -4.05888,15.18005 -4.05888,15.18005 z"
       style="fill:#000000;fill-opacity:1;stroke:none" />
    <path
       style="fill:#ffb35e;fill-opacity:1;stroke:none"
       d="m 993.12719,225.02525 c 0,0 -3.53553,-32.88046 -33.58757,-61.16473 -30.05204,-28.28428 -139.65359,10.25304 -146.01755,18.38477 -6.36396,8.13173 -0.35356,97.93429 1.41421,106.77313 1.76777,8.83883 30.40559,21.92031 30.40559,21.92031 l 14.14214,37.83021 71.99253,-19.41358 c 0,0 1.19302,-2.50673 3.31434,-3.21384 2.12132,-0.7071 80.25662,-25.10229 76.01402,-89.44901 0,0 5.4917,-22.39201 -17.67771,-11.66726 z"
       id="path4019"
       inkscape:connector-curvature="0"
       sodipodi:nodetypes="cssscccscc" />
    <path
       style="fill:#ffffff;fill-opacity:1;stroke:none"
       d="m 965.05155,172.9375 c 0.74753,0.002 1.49218,0.0788 2.25,0.1875 11.66989,13.29899 17.20394,28.2248 21.48591,38.95926 1.58964,8.424 -2.64704,12.24304 -7.95466,12.97824 -10.91186,1.51149 -23.17339,-6.4666 -28.3125,-21.6875 -5.13911,-15.2209 -3.19311,-31.80101 7.71875,-33.3125 0.68199,-0.0945 4.11654,2.87291 4.8125,2.875 z"
       id="path4539"
       inkscape:connector-curvature="0"
       sodipodi:nodetypes="sccssss" />
    <path
       style="fill:#ff8336;fill-opacity:1;stroke:none"
       d="m 813.13878,458.3044 c 0,0 -9.21883,-16.95073 -8.47537,-28.25123 0,0 -2.67644,20.07325 4.90679,30.03552 z"
       id="path3170"
       inkscape:connector-curvature="0" />
    <path
       style="fill:#ff8336;fill-opacity:1;stroke:none"
       d="m 841.39418,306.12228 c 0,0 6.78488,3.46783 7.84031,10.10193 1.05542,6.63411 7.53875,22.61627 7.53875,22.61627 l -10.85581,-15.37906 c 0,0 -1.8093,-11.91123 -4.52325,-17.33914 z"
       id="path3974"
       inkscape:connector-curvature="0"
       sodipodi:nodetypes="csccc" />
    <path
       sodipodi:type="arc"
       style="fill:#ffffff;fill-opacity:1;stroke:none"
       id="path4537"
       sodipodi:cx="642.22974"
       sodipodi:cy="278.76538"
       sodipodi:rx="27.400389"
       sodipodi:ry="33.587574"
       d="m 669.63013,278.76538 a 27.400389,33.587574 0 1 1 -54.80078,0 27.400389,33.587574 0 1 1 54.80078,0 z"
       transform="matrix(-1.1917171,0.3764826,0.5339995,1.137323,1517.5221,-344.23918)" />
    <path
       transform="matrix(-1.0213693,0.11728682,0.22986604,1.0054673,1483.7406,-144.45218)"
       d="m 669.63013,278.76538 a 27.400389,33.587574 0 1 1 -54.80078,0 27.400389,33.587574 0 1 1 54.80078,0 z"
       sodipodi:ry="33.587574"
       sodipodi:rx="27.400389"
       sodipodi:cy="278.76538"
       sodipodi:cx="642.22974"
       id="path4541"
       style="fill:url(#linearGradient3207);fill-opacity:1;stroke:none"
       sodipodi:type="arc" />
    <path
       style="fill:#ff2a2a;stroke:none"
       d="m 785.8328,410.125 c -0.375,0.5 -1.75,13.375 -0.125,16 1.625,2.625 4,3 5.5,0.625 1.5,-2.375 1.75,-11.5 1.75,-11.5 z"
       id="path4111"
       inkscape:connector-curvature="0" />
    <path
       style="fill:#ff2a2a;stroke:none"
       d="m 783.7078,384.5 c 0,0 -2,-3.625 -4.125,-0.75 -2.125,2.875 -1.375,14 0.25,16.25 1.625,2.25 4.5,-1.625 4.5,-1.625 z"
       id="path4113"
       inkscape:connector-curvature="0" />
    <path
       style="fill:#aad400;stroke:none"
       d="m 784.0828,381.375 c 0,0 -1.875,-0.875 -1.875,-2.875 0,-2 2.875,-4.125 3.625,-1.625 0.75,2.5 -1.75,4.5 -1.75,4.5 z"
       id="path4115"
       inkscape:connector-curvature="0" />
    <path
       style="fill:#ffeeaa;stroke:#ffe680;stroke-width:4;stroke-linecap:butt;stroke-linejoin:miter;stroke-opacity:1"
       d="m 796.40565,250.21512 c 0,0 8.76477,79.08395 -1.74925,103.89703 -10.51402,24.81308 -15.56075,55.51402 3.78504,66.02804 19.3458,10.51402 42.05608,2.52336 42.05608,2.52336 0,0 2.52336,-30.70093 31.12149,-37.00934 -0.84112,-1.68225 2.94393,-24.81309 -14.71962,-45 -17.66355,-20.18692 -32.80374,-60.14019 -34.48598,-69.81308"
       id="path3946"
       inkscape:connector-curvature="0"
       sodipodi:nodetypes="cssccsc" />
    <path
       style="fill:none;stroke:#ffe680;stroke-width:3;stroke-linecap:butt;stroke-linejoin:miter;stroke-opacity:1"
       d="m 837.33274,396.49111 c 0,0 -23.75111,-12.09859 -26.69503,-37.33223 -2.94393,-25.23365 -3.36449,-40.79439 -8.41122,-50.88785"
       id="path3948"
       inkscape:connector-curvature="0"
       sodipodi:nodetypes="csc" />
    <path
       style="fill:none;stroke:#ffe680;stroke-width:3;stroke-linecap:butt;stroke-linejoin:miter;stroke-opacity:1"
       d="m 835.87135,405.84112 c 0,0 -43.31776,12.61682 -46.68224,-33.2243"
       id="path3950"
       inkscape:connector-curvature="0" />
    <path
       style="fill:#c83737;stroke:none"
       d="m 856.40776,392.58313 c 0,0 -13.67954,-4.46072 -19.32978,4.16334 -5.65025,8.62405 2.97381,19.32978 2.97381,19.32978 0,0 8.62406,-20.81669 16.35597,-23.49312 z"
       id="path3952"
       inkscape:connector-curvature="0" />
    <path
       style="fill:#ffeeaa;fill-opacity:1;stroke:#ffe680;stroke-width:4;stroke-linecap:butt;stroke-linejoin:miter;stroke-opacity:1"
       d="m 871.57421,385.44597 c 0,0 46.09411,-22.89836 61.55794,34.19886 0,0 -10.70572,-15.16645 -25.27741,-19.62717 0,0 39.55172,36.28053 -10.70573,72.26367 0,0 12.19264,-13.97692 4.16334,-34.49624 0,0 -2.37905,30.03552 -33.60409,31.52243 -31.22505,1.4869 -40.44387,-20.8167 -40.44387,-20.8167 l 24.68265,1.18953 c 0,0 -15.16645,-6.83977 -11.00311,-31.22505 0,0 8.02929,-29.14338 30.63028,-33.00933 z"
       id="path3954"
       inkscape:connector-curvature="0" />
    <path
       style="fill:none;stroke:#ffe680;stroke-width:3;stroke-linecap:butt;stroke-linejoin:miter;stroke-opacity:1"
       d="m 847.18894,465.73894 c 0,0 33.90148,0.29738 35.98315,-33.00933 0,0 -33.6041,21.11408 -41.93078,-7.13715"
       id="path3956"
       inkscape:connector-curvature="0" />
    <path
       style="fill:#ffeeaa;fill-opacity:1;stroke:#ffe680;stroke-width:4;stroke-linecap:butt;stroke-linejoin:miter;stroke-opacity:1"
       d="m 666.0837,558.22454 c 0,0 32.71194,14.86907 22.3036,43.71506 0,0 -4.7581,-13.67954 -18.43765,-25.27741 0,0 9.21883,64.23437 -51.14959,46.09411 0,0 10.70573,-4.46072 14.86907,-11.00311 0,0 -35.98315,16.65335 -47.8784,-37.17267 0,0 6.54239,15.16645 29.44075,19.0324 0,0 -16.65335,-18.14026 -8.62406,-24.38527 8.0293,-6.24501 27.95385,-11.59787 37.76744,-10.70573 9.81358,0.89215 21.70884,-0.29738 21.70884,-0.29738 z"
       id="path3964"
       inkscape:connector-curvature="0" />
    <path
       style="fill:none;stroke:#ffe680;stroke-width:3;stroke-linecap:butt;stroke-linejoin:miter;stroke-opacity:1"
       d="m 642.44485,563.91694 c 0,0 -17.48471,9.38204 -14.07306,17.91117 3.41165,8.52913 23.4551,13.22015 23.4551,13.22015 0,0 -30.2784,26.86675 -56.29225,3.41165"
       id="path3970"
       inkscape:connector-curvature="0" />
    <path
       style="fill:#c83737;fill-opacity:1;stroke:none"
       d="m 668.16537,558.52192 c 0,0 -8.32668,9.81359 -17.24812,9.81359 -8.92144,0 -13.67955,-6.54239 -13.97693,-13.08478 0,0 17.24813,5.65024 31.22505,3.27119 z"
       id="path3968"
       inkscape:connector-curvature="0" />
    <path
       style="fill:#ff8336;fill-opacity:1;stroke:none"
       d="m 813.56051,261.87915 c 9.27542,7.88944 20.89636,10.76802 20.89636,10.76802 0,0 -8.42251,3.7315 -23.4551,-7.99605 z"
       id="path3980"
       inkscape:connector-curvature="0" />
    <path
       sodipodi:type="arc"
       style="fill:url(#linearGradient3209);fill-opacity:1;stroke:none"
       id="path4543"
       sodipodi:cx="642.22974"
       sodipodi:cy="278.76538"
       sodipodi:rx="27.400389"
       sodipodi:ry="33.587574"
       d="m 669.63013,278.76538 a 27.400389,33.587574 0 1 1 -54.80078,0 27.400389,33.587574 0 1 1 54.80078,0 z"
       transform="matrix(-0.48910704,0.21076366,0.21916519,0.63669968,1218.0537,-113.29796)" />
    <path
       transform="matrix(-0.39228967,0.16939194,0.17578206,0.51171915,1164.3391,-52.990352)"
       d="m 669.63013,278.76538 a 27.400389,33.587574 0 1 1 -54.80078,0 27.400389,33.587574 0 1 1 54.80078,0 z"
       sodipodi:ry="33.587574"
       sodipodi:rx="27.400389"
       sodipodi:cy="278.76538"
       sodipodi:cx="642.22974"
       id="path4547"
       style="fill:url(#linearGradient3211);fill-opacity:1;stroke:none"
       sodipodi:type="arc" />
    <path
       inkscape:connector-curvature="0"
       id="path4602"
       d="m 969.44551,175.19864 c 0,0 9.76967,-5.04481 9.27204,-8.72955 1.59486,6.87951 -8.35907,11.84438 -8.35907,11.84438 z"
       style="fill:#000000;fill-opacity:1;stroke:none" />
    <path
       style="fill:none;stroke:#000000;stroke-width:3;stroke-linecap:butt;stroke-linejoin:miter;stroke-opacity:1"
       d="m 964.4578,170.75 c -21.75,-2 -14,30 -14,30 0,0 1.3125,6.125 3.625,9.9375"
       id="path4558"
       inkscape:connector-curvature="0"
       sodipodi:nodetypes="cc" />
    <path
       inkscape:connector-curvature="0"
       id="path4604"
       d="m 971.72611,179.03593 c 0,0 8.10886,-2.88079 9.43354,-6.07928 0,0 -2.26901,6.43118 -7.66759,8.28732 z"
       style="fill:#000000;fill-opacity:1;stroke:none" />
    <path
       style="fill:none;stroke:#ff8336;stroke-width:4;stroke-linecap:butt;stroke-linejoin:miter;stroke-opacity:1"
       d="m 995.2078,225.25 c 0,0 -16.25,-46.25 -36.25,-59.75"
       id="path4021"
       inkscape:connector-curvature="0"
       sodipodi:nodetypes="cc" />
    <path
       sodipodi:type="arc"
       style="fill:url(#linearGradient3213);fill-opacity:1;stroke:none"
       id="path4545"
       sodipodi:cx="642.22974"
       sodipodi:cy="278.76538"
       sodipodi:rx="27.400389"
       sodipodi:ry="33.587574"
       d="m 669.63013,278.76538 a 27.400389,33.587574 0 1 1 -54.80078,0 27.400389,33.587574 0 1 1 54.80078,0 z"
       transform="matrix(-0.79890164,0.09740196,0.17641482,0.80786126,1350.5313,-77.611462)" />
    <path
       style="fill:none;stroke:#000000;stroke-width:3;stroke-linecap:butt;stroke-linejoin:miter;stroke-opacity:1"
       d="m 937.7078,215.75 c 0,0 -10,-44.25 -52.75,-40.5 0,0 -19.34054,-1.33103 -21.13388,28.3934"
       id="path4556"
       inkscape:connector-curvature="0"
       sodipodi:nodetypes="ccc" />
    <path
       sodipodi:type="arc"
       style="fill:#ffffff;fill-opacity:1;stroke:none"
       id="path4584"
       sodipodi:cx="709.75842"
       sodipodi:cy="197.18292"
       sodipodi:rx="6.3639612"
       sodipodi:ry="9.6343298"
       d="m 716.12238,197.18292 a 6.3639612,9.6343298 0 1 1 -12.72792,0 6.3639612,9.6343298 0 1 1 12.72792,0 z"
       transform="matrix(-1.1595011,-0.54926727,-0.48136038,1.3230752,1794.01,323.61789)" />
    <path
       style="fill:#ffeeaa;fill-opacity:1;stroke:#ffe680;stroke-width:4;stroke-linecap:butt;stroke-linejoin:miter;stroke-opacity:1"
       d="m 804.68323,173.0529 c 0,0 10.96016,-48.43681 59.39697,-71.77133 48.43682,-23.334528 90.86322,2.12132 90.86322,2.12132 0,0 -9.89949,9.89949 -34.29467,4.24264 0,0 35.35533,14.84924 45.96194,13.78858 10.6066,-1.06066 32.52691,-2.47487 39.95151,-25.455845 0,0 1.0607,86.267025 -96.52006,72.124895 0,0 6.01041,7.42462 14.84925,9.54594 0,0 -21.56676,1.41421 -44.19418,-9.54594 0,0 9.8995,8.48528 13.08148,14.84924 0,0 -35.33757,-5.61396 -66.45027,7.11396"
       id="path3986"
       inkscape:connector-curvature="0"
       sodipodi:nodetypes="csccscccccc" />
    <path
       style="fill:none;stroke:#ffe680;stroke-width:3;stroke-linecap:butt;stroke-linejoin:miter;stroke-opacity:1"
       d="m 817.2078,145.5 c 22.80383,-21.99222 56.67057,-34.14001 87.96692,-25.94656 14.22725,3.11337 26.52482,11.19122 39.77913,16.77634 9.75756,4.16764 20.66511,5.22367 30.99671,2.76677 8.78089,-1.57033 17.50834,-5.29538 23.50724,-12.09655"
       id="path3990"
       inkscape:connector-curvature="0" />
    <path
       style="fill:none;stroke:#ffe680;stroke-width:3;stroke-linecap:butt;stroke-linejoin:miter;stroke-opacity:1"
       d="m 808.7078,163 c 0,0 24.25,-25.75 60.75,-23.5 36.5,2.25 61,27.5 102,19.5"
       id="path3999"
       inkscape:connector-curvature="0" />
    <path
       style="fill:#ffb35e;fill-opacity:1;stroke:#ff8336;stroke-width:4;stroke-linecap:butt;stroke-linejoin:miter;stroke-opacity:1"
       d="m 819.98411,184.7483 c 0,0 -22.31472,-18.99767 -44.32789,-19.90232 0,0 -24.72712,50.35889 37.09068,98.90849"
       id="path3976"
       inkscape:connector-curvature="0" />
    <path
       style="fill:#f1943f;fill-opacity:1;stroke:none"
       d="m 821.13918,241.95411 c 0.11842,-0.99633 -8.39899,-11.66049 -6.10275,-22.19036 -5.74073,9.86082 -1.03715,16.09588 -1.03715,16.09588 z"
       id="path4062"
       inkscape:connector-curvature="0"
       sodipodi:nodetypes="cccc" />
    <path
       style="fill:#ff8336;fill-opacity:1;stroke:none"
       d="m 816.88082,184.63178 c 8.57367,7.15945 13.96536,12.37437 13.96536,12.37437 0,0 0.44195,-6.01041 -10.25304,-14.23053 z"
       id="path4001"
       inkscape:connector-curvature="0"
       sodipodi:nodetypes="cccc" />
    <path
       sodipodi:nodetypes="cccc"
       inkscape:connector-curvature="0"
       id="path4064"
       d="m 813.6463,234.13396 c 0.40762,-0.94372 -8.85542,-12.20114 -3.09363,-22.05167 -10.39512,8.80038 -5.3641,15.34964 -5.3641,15.34964 z"
       style="fill:#f1943f;fill-opacity:1;stroke:none" />
    <path
       style="fill:#ff8336;fill-opacity:1;stroke:none"
       d="m 788.71942,197.80407 c 0,0.85291 3.41165,28.57258 34.96943,46.05729 0,0 -31.34455,-30.06517 -34.96943,-46.05729 z"
       id="path3978"
       inkscape:connector-curvature="0" />
    <path
       sodipodi:type="arc"
       style="fill:#ffe6d5;fill-opacity:1;stroke:none"
       id="path4003"
       sodipodi:cx="704.98547"
       sodipodi:cy="273.55045"
       sodipodi:rx="4.9497476"
       sodipodi:ry="3.0935922"
       d="m 709.93522,273.55045 a 4.9497476,3.0935922 0 1 1 -9.89949,0 4.9497476,3.0935922 0 1 1 9.89949,0 z"
       transform="matrix(-0.81484858,-0.57967387,-0.57967387,0.81484858,1601.7028,446.75876)" />
    <path
       transform="matrix(-0.74712303,-0.32850722,-0.25985699,0.94450146,1453.5963,237.47332)"
       d="m 709.93522,273.55045 a 4.9497476,3.0935922 0 1 1 -9.89949,0 4.9497476,3.0935922 0 1 1 9.89949,0 z"
       sodipodi:ry="3.0935922"
       sodipodi:rx="4.9497476"
       sodipodi:cy="273.55045"
       sodipodi:cx="704.98547"
       id="path4005"
       style="fill:#ffe6d5;fill-opacity:1;stroke:none"
       sodipodi:type="arc" />
    <path
       sodipodi:type="arc"
       style="fill:#ffe6d5;fill-opacity:1;stroke:none"
       id="path4007"
       sodipodi:cx="704.98547"
       sodipodi:cy="273.55045"
       sodipodi:rx="4.9497476"
       sodipodi:ry="3.0935922"
       d="m 709.93522,273.55045 a 4.9497476,3.0935922 0 1 1 -9.89949,0 4.9497476,3.0935922 0 1 1 9.89949,0 z"
       transform="matrix(-0.79226179,-0.31607058,0.01813148,1.1636312,1412.8746,155.76264)" />
    <path
       style="fill:none;stroke:#ff8336;stroke-width:4;stroke-linecap:butt;stroke-linejoin:miter;stroke-opacity:1"
       d="m 934.08377,327.20218 c 0,0 72.12493,-16.26345 76.72113,-87.68124 0,0 0.2292,-25.4957 -12.37441,-17.32411 -7.37253,4.78001 -15.20279,4.24264 -15.20279,4.24264"
       id="path4009"
       inkscape:connector-curvature="0"
       sodipodi:nodetypes="ccsc" />
    <path
       style="fill:#ff8336;fill-opacity:1;stroke:none"
       d="m 983.91137,228.42601 c 0,0 -4.92919,-0.0232 -7.11212,-3.29775 l 7.53488,-0.71253 z"
       id="path4013"
       inkscape:connector-curvature="0"
       sodipodi:nodetypes="cccc" />
    <path
       style="fill:#ff8336;fill-opacity:1;stroke:none"
       d="m 988.5828,233.375 c 0,0 -4.625,6.125 -8.875,0.625 4.625,14 8.875,-0.625 8.875,-0.625 z"
       id="path4015"
       inkscape:connector-curvature="0" />
    <path
       style="fill:#ff8336;fill-opacity:1;stroke:none"
       d="m 933.907,325.25764 c 0,0 -6.0988,0.44194 -8.66206,6.54073 0,0 9.19239,-2.47487 10.07627,-2.91681 0.88388,-0.44194 -1.41421,-3.62392 -1.41421,-3.62392 z"
       id="path4017"
       inkscape:connector-curvature="0"
       sodipodi:nodetypes="ccsc" />
    <path
       style="fill:#ff8336;fill-opacity:1;stroke:none"
       d="m 1008.0648,256.66828 c 0,0 -15.11439,11.22532 -25.45582,-4.06586 2.2981,16.88218 23.15772,10.6066 23.15772,10.6066 z"
       id="path4509"
       inkscape:connector-curvature="0" />
    <path
       style="fill:#000000;fill-opacity:1;stroke:none"
       d="m 952.11642,209.86103 c 0,0 1.45863,5.60832 7.11631,6.46422 -3.70766,-4.27486 -4.3453,-6.98559 -4.3453,-6.98559 z"
       id="path4560"
       inkscape:connector-curvature="0"
       sodipodi:nodetypes="cccc" />
    <path
       style="fill:#000000;fill-opacity:1;stroke:none"
       d="m 936.0828,215.875 c 0,0 2.25,10.625 1.25,16.8125 0,0 4.3125,-7.6875 1.5625,-18.0625 -2.75,-10.375 -2.8125,1.25 -2.8125,1.25 z"
       id="path4562"
       inkscape:connector-curvature="0"
       sodipodi:nodetypes="ccsc" />
    <path
       transform="matrix(-0.9831852,0.20310545,0.03468368,0.81221117,1647.5521,-116.43589)"
       d="m 716.12238,197.18292 a 6.3639612,9.6343298 0 1 1 -12.72792,0 6.3639612,9.6343298 0 1 1 12.72792,0 z"
       sodipodi:ry="9.6343298"
       sodipodi:rx="6.3639612"
       sodipodi:cy="197.18292"
       sodipodi:cx="709.75842"
       id="path4586"
       style="fill:#ffffff;fill-opacity:1;stroke:none"
       sodipodi:type="arc" />
    <path
       transform="matrix(-0.67728765,-0.13441226,-0.09869577,0.61856143,1388.5252,182.10723)"
       d="m 716.12238,197.18292 a 6.3639612,9.6343298 0 1 1 -12.72792,0 6.3639612,9.6343298 0 1 1 12.72792,0 z"
       sodipodi:ry="9.6343298"
       sodipodi:rx="6.3639612"
       sodipodi:cy="197.18292"
       sodipodi:cx="709.75842"
       id="path4588"
       style="fill:#ffffff;fill-opacity:1;stroke:none"
       sodipodi:type="arc" />
    <path
       sodipodi:type="arc"
       style="fill:#ffffff;fill-opacity:1;stroke:none"
       id="path4590"
       sodipodi:cx="709.75842"
       sodipodi:cy="197.18292"
       sodipodi:rx="6.3639612"
       sodipodi:ry="9.6343298"
       d="m 716.12238,197.18292 a 6.3639612,9.6343298 0 1 1 -12.72792,0 6.3639612,9.6343298 0 1 1 12.72792,0 z"
       transform="matrix(-0.33708648,-0.06544698,-0.04912094,0.30118514,1212.3167,184.13931)" />
    <path
       style="fill:#000000;fill-opacity:1;stroke:none"
       d="m 863.28971,201.06421 c 0,0 -1.05994,9.11099 2.5106,17.1532 0,0 -0.70369,-12.84626 -0.11823,-17.59799 z"
       id="path4592"
       inkscape:connector-curvature="0"
       sodipodi:nodetypes="cccc" />
    <path
       style="fill:#000000;fill-opacity:1;stroke:none"
       d="m 864.88871,190.03053 c 0,0 -14.55235,0.59954 -17.46399,-7.02167 -0.68977,9.23516 16.28905,12.1016 16.28905,12.1016 z"
       id="path4594"
       inkscape:connector-curvature="0" />
    <path
       style="fill:#000000;fill-opacity:1;stroke:none"
       d="m 863.54227,195.77713 c 0,0 -13.94673,2.71814 -16.39797,-1.40622 3.90183,8.23317 17.9712,5.28672 17.9712,5.28672 z"
       id="path4596"
       inkscape:connector-curvature="0" />
    <path
       style="fill:#000000;fill-opacity:1;stroke:none"
       d="m 864.30906,201.48283 c 0,0 -10.52799,3.57712 -14.43588,1.40303 0,0 7.45779,4.68721 14.41737,2.24321 z"
       id="path4598"
       inkscape:connector-curvature="0" />
    <path
       style="fill:#f1943f;fill-opacity:1;stroke:none"
       d="M 921.03623,341.19975 929.9578,333 c 0,0 26.25,46.25 25.25,66 0,0 -3.26777,-30.60355 -34.17157,-57.80025 z"
       id="path4622"
       inkscape:connector-curvature="0"
       sodipodi:nodetypes="cccc" />
    <path
       style="fill:#f1943f;fill-opacity:1;stroke:none"
       d="m 900.2078,536.25 c -2.75,-8.25 3,-48.25 3.25,-50.5 6.25,0 20.75,-7.5 20.75,-7.5 1.25,40.75 5.25,49.5 5.5,51.5 0,0 2,26.25 -17,55.5 -19,29.25 -19,29.25 -19,29.25 30.75,-56 27.5,-89 20.75,-93.5 -6.75,-4.5 -14.25,15.25 -14.25,15.25 z"
       id="path4624"
       inkscape:connector-curvature="0" />
    <path
       style="fill:#f1943f;fill-opacity:1;stroke:none"
       d="m 909.9578,609.25 c 0,0 -13.5,31.5 -41,47.75 48,16.25 41,-47.75 41,-47.75 z"
       id="path4626"
       inkscape:connector-curvature="0" />
    <path
       style="fill:#f1943f;fill-opacity:1;stroke:none"
       d="m 827.9578,615 c -1.5,14.5 1.5,33 12.25,43 10.75,10 35.75,-19.75 35.75,-19.75 0,0 -24.5,24.25 -33.5,15 0,0 -4.25,-25.75 -14.5,-38.25 z"
       id="path4628"
       inkscape:connector-curvature="0"
       sodipodi:nodetypes="csccc" />
    <path
       style="fill:#f1943f;fill-opacity:1;stroke:none"
       d="m 805.39034,455.18851 c 3.53553,9.8995 9.54594,14.84924 9.54594,14.84924 0,0 -10.6066,17.67767 -11.66726,21.56676 0,0 -4.75,-7.48528 2.12132,-36.416 z"
       id="path4630"
       inkscape:connector-curvature="0"
       sodipodi:nodetypes="cccc" />
    <path
       style="fill:#f1943f;fill-opacity:1;stroke:none"
       d="m 789.83399,584.9426 c 0,0 2.82843,36.76956 14.84924,52.67946 0,0 5.93842,6.76984 -13.08147,9.19239 -15.84189,2.01777 -24.03123,1.10355 -24.03123,1.10355 0,0 24.24874,-2.17894 22.26346,-62.9754 z"
       id="path4632"
       inkscape:connector-curvature="0"
       sodipodi:nodetypes="ccscc" />
    <path
       style="fill:#f1943f;fill-opacity:1;stroke:none"
       d="m 834.38172,484.887 c 0,0 -31.81981,36.76955 -14.14214,113.49063 0,0 -5.3033,13.43503 -2.12132,29.34493 l -8.66206,0 c 0,0 -34.40056,-89.44856 24.92552,-142.83556 z"
       id="path4634"
       inkscape:connector-curvature="0" />
    <path
       style="fill:#f1943f;fill-opacity:1;stroke:none"
       d="m 864.78731,185.78083 -1.23744,3.18198 c 0,0 -7.77817,0.17677 -10.78338,-2.47488 3.53553,-1.06066 12.02082,-0.7071 12.02082,-0.7071 z"
       id="path4636"
       inkscape:connector-curvature="0" />
    <path
       style="fill:#f1943f;fill-opacity:1;stroke:none"
       d="m 832.43717,192.32156 c 1.06066,-1.06066 14.14214,-4.06586 14.14214,-4.06586 4.77297,6.71751 14.31891,6.89429 14.31891,6.89429 0,0 -10.42982,1.06066 -13.08147,-1.94454 l -1.94455,-0.35356 c 0,0 0.70711,10.07628 14.14214,8.30851 0,0 -8.48529,5.48007 -27.57717,-8.83884 z"
       id="path4638"
       inkscape:connector-curvature="0" />
    <path
       style="fill:#f1943f;fill-opacity:1;stroke:none"
       d="m 957.06474,169.34059 c 0,0 -22.80419,7.95495 -35.70889,2.82843 l 6.36396,3.18198 -1.06066,6.18718 -7.77817,10e-6 c 0,0 8.44108,4.19844 16.72749,2.38649 6.0353,-1.31972 9.52384,-10.695 21.45627,-14.58409 z"
       id="path4640"
       inkscape:connector-curvature="0"
       sodipodi:nodetypes="cccccsc" />
    <path
       style="fill:#f1943f;fill-opacity:1;stroke:none"
       d="m 845.9578,306.5 c -9.5,-7.25 -11.5,-31.25 -11.5,-31.25 0,0 -4.5,1.5 -7.25,0 0,0 10,29.75 18.75,31.25 z"
       id="path4642"
       inkscape:connector-curvature="0" />
    <path
       style="fill:#f1943f;fill-opacity:1;stroke:none"
       d="m 932.31601,323.3131 c 38.18376,-10.25305 55.15433,-35.35535 56.56854,-36.41601 0,0 -11.66726,6.36397 -17.67767,4.5962 0,0 -8.48528,18.73834 -38.89087,31.81981 z"
       id="path4644"
       inkscape:connector-curvature="0"
       sodipodi:nodetypes="cccc" />
    <path
       style="fill:#f7e390;fill-opacity:1;stroke:none"
       d="m 888.7078,97 c 0,0 -15.45729,7.91169 -31.75,21.40625 -7.30142,2.29409 -14.36182,5.412 -21,9.25 11.68314,-11.54474 28.53504,-22.90057 52.75,-30.65625 z m -44.375,33 c -3.92358,4.05536 -7.64357,8.41793 -10.96875,13.0625 -6.07521,2.62038 -11.2334,5.66597 -15.375,8.5 1.01363,-1.89144 2.12523,-3.84756 3.40625,-5.875 6.83182,-6.2145 14.6119,-11.52713 22.9375,-15.6875 z m -17.03125,22.78125 c -4.37213,8.19191 -7.25089,17.06458 -7.59375,26.46875 -3,-2.75 -9.5,-7 -9.5,-7 0,0 0.55892,-3.4686 2.53125,-8.96875 2.4941,-2.28588 7.48061,-6.44538 14.5625,-10.5 z"
       id="path3981"
       inkscape:connector-curvature="0" />
    <path
       style="fill:#f7e390;fill-opacity:1;stroke:none"
       d="m 995.23905,126.5625 c 0,0 -0.11333,0.32611 -0.28125,0.71875 -0.10995,0.0991 -0.23227,0.18377 -0.34375,0.28125 0.20736,-0.32977 0.42476,-0.66293 0.625,-1 z m -7.21875,12.09375 c -4.55723,5.9079 -11.54116,12.85285 -21.8125,18.15625 -9.60683,1.31332 -18.25631,0.7658 -26.46875,-0.84375 13.79508,-1.71057 30.19819,-5.84788 42.75,-15.34375 1.86872,-0.55108 3.72931,-1.19481 5.53125,-1.96875 z m -75.6875,18.125 c 0,0 3.41545,0.30537 8.78125,0.3125 8.49915,2.8711 17.36063,5.2441 27.03125,6.09375 -6.30783,1.35112 -13.38665,2.08936 -21.3125,1.90625 l -14.5,-8.3125 z"
       id="path4004"
       inkscape:connector-curvature="0" />
    <path
       style="fill:#f7e390;fill-opacity:1;stroke:none"
       d="m 910.04214,172.87612 c 0,0 -25.45584,-5.12652 -28.46105,-10.78338 l 9.8995,0.53033 c 0,0 -10e-6,4.41942 18.56155,10.25305 z"
       id="path4020"
       inkscape:connector-curvature="0" />
    <path
       style="fill:#f7e390;fill-opacity:1;stroke:none"
       d="m 884.93985,178.17943 c 0,0 -26.33973,-1.23744 -38.00699,2.12132 14.84924,-6.18718 33.4108,-6.54074 33.4108,-6.54074 z"
       id="path4024"
       inkscape:connector-curvature="0" />
    <path
       style="fill:#f7e390;fill-opacity:1;stroke:none"
       d="m 833.7078,310.5 c 0,0 4.75,14.25 17.75,29.75 13,15.5 16,42.75 16,42.75 0,0 -8.75,-0.25 -12.75,6 3.75,-13.75 -5.25,-39 -10.75,-46.25 -5.5,-7.25 -10.25,-32.25 -10.25,-32.25 z"
       id="path4026"
       inkscape:connector-curvature="0" />
    <path
       style="fill:#f7e390;fill-opacity:1;stroke:none"
       d="m 832.9578,401.25 c 0,0 -0.0386,0.88739 0,2.1875 -0.56887,0.11522 -1.23554,0.22247 -2,0.34375 1.40625,-1.44531 2,-2.53125 2,-2.53125 z m -41.25,6.25 c 12.07281,4.2159 20.95388,4.27189 27.3125,2.75 6.18663,0.53267 11.59079,-0.21323 14.75,-0.84375 0.64372,2.47441 1.75808,5.07245 3.6875,7.09375 l -1.25,3.75 c 0,0 -31.25,7 -44.5,-12.75 z"
       id="path4028"
       inkscape:connector-curvature="0" />
    <path
       style="fill:#f7e390;fill-opacity:1;stroke:none"
       d="m 908.2078,457.5 c 0,0 23.5,-25.75 -0.75,-52 l -8.75,-1 c 0,0 24.75,22.25 9.5,53 z"
       id="path4037"
       inkscape:connector-curvature="0" />
    <path
       style="fill:#f7e390;fill-opacity:1;stroke:none"
       d="m 922.9578,403.75 c 0,0 -8.5,-14.75 -21.5,-18.5 l -6.25,3.25 c 0,0 12.5,-3 27.75,15.25 z"
       id="path4039"
       inkscape:connector-curvature="0" />
    <path
       style="fill:#f7e390;fill-opacity:1;stroke:none"
       d="m 897.4578,434 c -4.25,34.75 -33.25,32 -33.25,32 0,0 14.5,-2.75 21.25,-23 z"
       id="path4043"
       inkscape:connector-curvature="0" />
    <path
       style="fill:#f7e390;fill-opacity:1;stroke:none"
       d="m 872.11227,425.61578 c 0,0 -1,-22.5 22.5,-22 0,0 -37,-2.25 -22.5,22 z"
       id="path4058"
       inkscape:connector-curvature="0" />
    <path
       style="fill:#f7e390;fill-opacity:1;stroke:none"
       d="m 767.20657,374.93189 c 0,0 -55.50788,-36.76955 -80.61017,-15.2028 -25.10229,21.56676 -29.34493,80.25662 11.31371,114.5513 l -1.41422,0 c -20.85965,-32.88046 -30.40559,-73.89266 0.35356,-99.70205 30.75914,-25.8094 70.35712,0.35355 70.35712,0.35355 z"
       id="path4060"
       inkscape:connector-curvature="0" />
    <path
       style="fill:#f7e390;fill-opacity:1;stroke:none"
       d="m 687.30351,591.12979 c 0,0 -0.88389,-17.67767 -16.44024,-25.45585 l -4.77297,1.41422 c 0,0 14.67248,3.18198 21.21321,24.04163 z"
       id="path4066"
       inkscape:connector-curvature="0" />
    <path
       style="fill:#f7e390;fill-opacity:1;stroke:none"
       d="m 629.14397,622.06571 c 0,0 33.23402,7.24785 36.94633,-29.52171 l -11.49048,7.95495 c 0,0 -4.06587,20.68288 -25.45585,21.56676 z"
       id="path4068"
       inkscape:connector-curvature="0" />
    <path
       style="fill:#f7e390;fill-opacity:1;stroke:none"
       d="m 607.93077,575.75022 c 0,0 9.36916,15.73312 13.78858,18.38477 0,0 7.6014,0.70711 7.07107,0 -0.53033,-0.7071 -15.02602,-8.30849 -20.85965,-18.38477 z"
       id="path4070"
       inkscape:connector-curvature="0" />
    <path
       style="fill:#f7e390;fill-opacity:1;stroke:none"
       d="m 665.73675,563.37585 c 0,0 -10.96016,11.13693 -21.74354,5.65685 20.50609,15.02602 21.74354,-5.65685 21.74354,-5.65685 z"
       id="path4072"
       inkscape:connector-curvature="0" />
    <path
       style="fill:#d6a164;fill-opacity:1;stroke:none"
       d="m 779.22739,239.69771 12.72792,10.78339 c 0,0 4.94975,47.0226 2.82843,55.50788 0,0 -6.01041,8.83883 -12.37437,10.25305 0,0 -14.84925,-14.14214 -21.03643,-31.81981 0,0 14.49569,-0.70711 17.85445,-44.72451 z"
       id="path4076"
       inkscape:connector-curvature="0"
       sodipodi:nodetypes="cccccc" />
    <path
       style="fill:#d6a164;fill-opacity:1;stroke:none"
       d="m 922.2078,35.75 c 0,0 37.77513,29.696699 44.75,46.75 4.76318,11.645798 -9.75,33 -9.75,33 l -13,-3.25 c 5.44975,-0.54289 13.88486,-2.54407 17.5,-10.5 -2.85882,-8.388452 -113.13555,-51.158404 -161.375,65.5625 -11.47997,-6.31332 -9.34375,-3.40625 -9.34375,-3.40625 C 820.75125,89.367144 864.7078,62.75 864.7078,62.75 c 5.75,11 16.77205,20.982838 40.96875,13.09375 C 933.98013,66.615658 922.2078,35.75 922.2078,35.75 z M 770.92655,215.21875 c 6.71728,22.58352 12.56064,26.26749 14.68014,30.50336 0,0 -5.32661,37.62716 -23.71139,40.80914 0,0 -8.99778,-16.00602 9.03125,-71.3125 z"
       id="path4080"
       inkscape:connector-curvature="0"
       sodipodi:nodetypes="csccccccsccccc" />
    <path
       style="fill:#f7e390;fill-opacity:1;stroke:none"
       d="m 578.0516,457.3125 c 5.031,19.90994 13.2512,34.87817 22.25,46.09375 0.8029,2.57221 1.6786,5.07823 2.5937,7.53125 1.0431,2.79605 2.1537,5.50231 3.3437,8.125 -21.161,-27.60566 -28.1874,-61.75 -28.1874,-61.75 z m 32.8437,57.4375 c 17.7492,16.27254 35.03125,20.34375 35.03125,20.34375 l 0.71875,14.5 C 639.1378,547.05811 632.394,543.39619 626.3328,539 c -0.0236,-0.0171 -0.0389,-0.0454 -0.0625,-0.0625 -5.9949,-6.19725 -11.1626,-14.4697 -15.375,-24.1875 z"
       id="path4085"
       inkscape:connector-curvature="0" />
    <path
       style="fill:#f7e390;fill-opacity:1;stroke:none"
       d="m 750.0828,327 c 0,0 10.25,6.75 15.375,14.25 0,0 2.6143,3.8582 5.1875,7.65625 -4.3031,-5.47725 -9.211,-10.45904 -14.5625,-14.9375 -2.5113,-3.28032 -4.8339,-6.10499 -6,-6.96875 z m -2.125,9.75 c 0,0 2.6279,1.49962 5.7188,3.3125 8.6062,7.44148 15.9181,16.25984 20.9374,26.25 -0.8563,0.82288 -1.699,1.69579 -2.5,2.53125 -2.231,-1.69326 -7.6508,-5.691 -15.625,-10.3125 -2.9731,-3.1444 -9.7235,-10.06236 -12.8124,-11.25 1.9192,0.33345 13.6475,2.47472 19.2812,6.84375 0,-1.25 -10.75,-14.875 -15,-17.375 z m 30.2188,23.375 c 0.5161,0.7981 0.9062,1.45312 1.1562,1.875 0,0 -0.088,0.0887 -0.0938,0.0937 -0.35,-0.66486 -0.695,-1.31463 -1.0624,-1.96875 z"
       id="path4094"
       inkscape:connector-curvature="0" />
    <path
       style="fill:#f7e390;fill-opacity:1;stroke:none"
       d="m 800.26381,258.08249 c 3.53554,4.77297 16.08668,12.1976 17.32412,12.37437 0,0.53033 3.35876,14.67247 5.65685,18.91511 0,0 -5.3033,-3.18198 -7.07106,-8.83884 0,0 -0.53033,5.30331 0.17677,6.01041 0,0 -5.48007,-8.13173 -6.54073,-13.25825 0,0 -2.47488,1.94454 -1.41422,6.36396 0,0 -6.54074,-9.01562 -8.13173,-21.56676 z"
       id="path4103"
       inkscape:connector-curvature="0" />
    <path
       style="fill:#f1943f;fill-opacity:1;stroke:none"
       d="m 803.9003,177.97861 c 0.7071,0.7071 10.10229,4.03122 27.93072,21.92031 0,0 2.47489,5.56845 0.79549,9.28077 0,0 -6.23635,-14.83146 -28.72621,-31.20108 z"
       id="path4105"
       inkscape:connector-curvature="0"
       sodipodi:nodetypes="cccc" />
    <path
       style="fill:#ff2a2a;stroke:none"
       d="m 771.97954,416.12086 c 0,0 4.41942,-4.59619 5.3033,-2.47487 0.88389,2.12132 1.76777,13.96536 -6.18718,18.208 -7.95495,4.24264 -5.48008,-15.37958 -4.06586,-16.79379 1.41421,-1.41421 4.94974,1.06066 4.94974,1.06066 z"
       id="path4109"
       inkscape:connector-curvature="0" />
    <path
       style="fill:#aad400;stroke:none"
       d="m 772.2078,414.25 c 0,0 0.625,-3.375 -1.25,-4.875 -1.875,-1.5 -2.875,1.75 -1.25,3.5 1.625,1.75 2.5,1.375 2.5,1.375 z"
       id="path4117"
       inkscape:connector-curvature="0" />
    <path
       style="fill:#aad400;stroke:none"
       d="m 772.2078,414.125 c 0,0 -1.625,-8 0.25,-10.25 1.875,-2.25 4.125,-0.125 2.25,1.125 -1.875,1.25 -2.5,9.125 -2.5,9.125 z"
       id="path4119"
       inkscape:connector-curvature="0" />
  </g>
</svg>
